<mxfile host="app.diagrams.net" modified="2021-10-20T18:11:11.303Z" agent="5.0 (Windows NT 10.0; Win64; x64) AppleWebKit/537.36 (KHTML, like Gecko) Chrome/94.0.4606.81 Safari/537.36 Edg/94.0.992.50" etag="ez4vUUZX4fg_xTPYjiEc" version="15.5.6" type="github">
  <diagram id="L9h7rcnGL-ruhj4N0t8O" name="Page-1">
    <mxGraphModel dx="1831" dy="520" grid="1" gridSize="10" guides="1" tooltips="1" connect="1" arrows="1" fold="1" page="1" pageScale="1" pageWidth="850" pageHeight="1100" math="0" shadow="0">
      <root>
        <mxCell id="0" />
        <mxCell id="1" parent="0" />
        <mxCell id="MV-CaAHBzK1avhQ4tYMH-17" value="" style="whiteSpace=wrap;html=1;aspect=fixed;fillColor=none;dashed=1;strokeColor=#007FFF;strokeWidth=2;" vertex="1" parent="1">
          <mxGeometry x="38" y="72.56" width="682" height="682" as="geometry" />
        </mxCell>
        <mxCell id="Rhveo0W2Fqeqg5HtCw4J-10" style="edgeStyle=orthogonalEdgeStyle;rounded=0;orthogonalLoop=1;jettySize=auto;html=1;" parent="1" source="Rhveo0W2Fqeqg5HtCw4J-1" target="Rhveo0W2Fqeqg5HtCw4J-2" edge="1">
          <mxGeometry relative="1" as="geometry" />
        </mxCell>
        <mxCell id="Rhveo0W2Fqeqg5HtCw4J-17" style="edgeStyle=orthogonalEdgeStyle;rounded=0;orthogonalLoop=1;jettySize=auto;html=1;" parent="1" source="Rhveo0W2Fqeqg5HtCw4J-1" target="Rhveo0W2Fqeqg5HtCw4J-7" edge="1">
          <mxGeometry relative="1" as="geometry" />
        </mxCell>
        <mxCell id="Rhveo0W2Fqeqg5HtCw4J-18" style="edgeStyle=orthogonalEdgeStyle;rounded=0;orthogonalLoop=1;jettySize=auto;html=1;" parent="1" source="Rhveo0W2Fqeqg5HtCw4J-1" target="Rhveo0W2Fqeqg5HtCw4J-12" edge="1">
          <mxGeometry relative="1" as="geometry" />
        </mxCell>
        <mxCell id="Rhveo0W2Fqeqg5HtCw4J-1" value="Web App" style="shape=image;verticalLabelPosition=bottom;labelBackgroundColor=#ffffff;verticalAlign=top;aspect=fixed;imageAspect=0;image=data:image/svg+xml,PHN2ZyB4bWxuczpkYz0iaHR0cDovL3B1cmwub3JnL2RjL2VsZW1lbnRzLzEuMS8iIHhtbG5zOmNjPSJodHRwOi8vY3JlYXRpdmVjb21tb25zLm9yZy9ucyMiIHhtbG5zOnJkZj0iaHR0cDovL3d3dy53My5vcmcvMTk5OS8wMi8yMi1yZGYtc3ludGF4LW5zIyIgeG1sbnM6c3ZnPSJodHRwOi8vd3d3LnczLm9yZy8yMDAwL3N2ZyIgeG1sbnM9Imh0dHA6Ly93d3cudzMub3JnLzIwMDAvc3ZnIiB4bWxuczpzb2RpcG9kaT0iaHR0cDovL3NvZGlwb2RpLnNvdXJjZWZvcmdlLm5ldC9EVEQvc29kaXBvZGktMC5kdGQiIHhtbG5zOmlua3NjYXBlPSJodHRwOi8vd3d3Lmlua3NjYXBlLm9yZy9uYW1lc3BhY2VzL2lua3NjYXBlIiB2ZXJzaW9uPSIxLjEiIGlkPSJzdmc2MTMyMyIgaW5rc2NhcGU6dmVyc2lvbj0iMC45Mi4zICgyNDA1NTQ2LCAyMDE4LTAzLTExKSIgc29kaXBvZGk6ZG9jbmFtZT0iYXp1cmVfcG9ydGFsX3dlYl9hcHBzLnN2ZyIgeD0iMHB4IiB5PSIwcHgiIHZpZXdCb3g9IjAgMCA1MS4wMjkzMTcgNTEuMDIiIHhtbDpzcGFjZT0icHJlc2VydmUiIHdpZHRoPSI1MS4wMjkzMTYiIGhlaWdodD0iNTEuMDIiPjxtZXRhZGF0YSBpZD0ibWV0YWRhdGExMTY1NSI+PHJkZjpSREY+PGNjOldvcmsgcmRmOmFib3V0PSIiPjxkYzpmb3JtYXQ+aW1hZ2Uvc3ZnK3htbDwvZGM6Zm9ybWF0PjxkYzp0eXBlIHJkZjpyZXNvdXJjZT0iaHR0cDovL3B1cmwub3JnL2RjL2RjbWl0eXBlL1N0aWxsSW1hZ2UiLz48ZGM6dGl0bGUvPjwvY2M6V29yaz48L3JkZjpSREY+PC9tZXRhZGF0YT48ZGVmcyBpZD0iZGVmczExNjUzIi8+JiN4YTs8ZmlsdGVyIGlkPSJmaWx0ZXJfMiI+JiN4YTsJPGZlR2F1c3NpYW5CbHVyIGlkPSJmZUdhdXNzaWFuQmx1cjYxMjk2IiBzdGREZXZpYXRpb249IjIiLz4mI3hhOzwvZmlsdGVyPiYjeGE7PHNvZGlwb2RpOm5hbWVkdmlldyBib3JkZXJjb2xvcj0iIzY2NjY2NiIgYm9yZGVyb3BhY2l0eT0iMSIgZml0LW1hcmdpbi1ib3R0b209IjAiIGZpdC1tYXJnaW4tbGVmdD0iMCIgZml0LW1hcmdpbi1yaWdodD0iMCIgZml0LW1hcmdpbi10b3A9IjAiIGdyaWR0b2xlcmFuY2U9IjEwIiBndWlkZXRvbGVyYW5jZT0iMTAiIGlkPSJuYW1lZHZpZXc2MTMyNSIgaW5rc2NhcGU6Y3VycmVudC1sYXllcj0ic3ZnNjEzMjMiIGlua3NjYXBlOmN4PSItNDUuMDA0ODE4IiBpbmtzY2FwZTpjeT0iMzkuNDkwNjM4IiBpbmtzY2FwZTpwYWdlb3BhY2l0eT0iMCIgaW5rc2NhcGU6cGFnZXNoYWRvdz0iMiIgaW5rc2NhcGU6d2luZG93LWhlaWdodD0iMTAxNyIgaW5rc2NhcGU6d2luZG93LW1heGltaXplZD0iMSIgaW5rc2NhcGU6d2luZG93LXdpZHRoPSIxOTIwIiBpbmtzY2FwZTp3aW5kb3cteD0iLTgiIGlua3NjYXBlOndpbmRvdy15PSItOCIgaW5rc2NhcGU6em9vbT0iNC4zMDY1ODM0IiBvYmplY3R0b2xlcmFuY2U9IjEwIiBwYWdlY29sb3I9IiNmZmZmZmYiIHNob3dncmlkPSJmYWxzZSI+JiN4YTsJPC9zb2RpcG9kaTpuYW1lZHZpZXc+JiN4YTsmI3hhOzxwYXRoIGlkPSJwYXRoNjEzMDkiIGlua3NjYXBlOmNvbm5lY3Rvci1jdXJ2YXR1cmU9IjAiIHN0eWxlPSJmaWxsOiM1OWI0ZDkiIGQ9Im0gNDEuMDE0NTI2LDQ1Ljc2IGMgLTQuNjIsMy41MyAtMTAuMDcsNS4yNiAtMTUuNDcsNS4yNiAtNy42OCwwIC0xNS4yNywtMy40NSAtMjAuMjc5OTk5OSwtMTAuMDEgLTguNTcsLTExLjE5IC02LjQ2LC0yNy4xOCA0Ljc0OTk5OTksLTM1Ljc2IDQuNjIsLTMuNTUgMTAuMDgsLTUuMjUgMTUuNDgsLTUuMjUgNy42NywwIDE1LjI2LDMuNDUgMjAuMjgsMTAuMDEgOC41NywxMS4xOCA2LjQzLDI3LjE5IC00Ljc2LDM1Ljc1IHoiLz4mI3hhOyYjeGE7PHBhdGggaWQ9InBhdGg2MTMxNyIgaW5rc2NhcGU6Y29ubmVjdG9yLWN1cnZhdHVyZT0iMCIgc3R5bGU9ImZpbGw6I2ZmZmZmZiIgZD0ibSAzNi4zMzQ1MjYsMjkuOTggYyAxLjg1LDIuNDEgNS4yOSwyLjg1IDcuNywxLjAyIDAuMTIsLTAuMDkgMC4yMiwtMC4yMSAwLjMzLC0wLjMxIDIuNDYsMS43MyA0LjE3LDIuODcgNS4xMywzLjUzIDAuMjgsLTAuNzQgMC40OCwtMS40NSAwLjY4LC0yLjE5IC0xLjAxLC0wLjc2IC0yLjM5LC0xLjgxIC00LjM3LC0zLjQyIDAuNjUsLTEuNzIgMC40NCwtMy43MiAtMC43NSwtNS4yOCAtMS43LC0yLjIxIC00LjcyLC0yLjc3IC03LjA4LC0xLjQxIC0yLjYsLTIuMzMgLTUuNDUsLTUgLTguNDYsLTcuOTkgOS4zNSwtNS4wMyAxNiwtNC4yOSAxNiwtNC4yOSAtMS4xMSwtMS40MiAtMi4zNiwtMi42NiAtMy42OCwtMy43OCAtMy45NSwtMC42MSAtMTAuMDcsLTAuNTQgLTE3LjA3LDMuMTkgbCAtMC4wMSwtMC4wMSB2IDAgYyAtMi4zMywtMi40NCAtNC43MSwtNS4wNiAtNy4xMiwtNy44NyAtMS4xNiwwLjM3IC0yLjI5LDAuODMgLTMuMzgsMS4zOCAxLjc4LDIuOTIgNC4xOCw1Ljg3IDYuODksOC43NCAwLDAuMDEgMC4wMSwwLjAxIDAuMDIsMC4wMiAtMi4yNiwxLjU3IC00Ljc3LDMuNjggLTcuMDksNi4xMyAtMC4zLDAuMzIgLTAuNTgsMC42NCAtMC44NiwwLjk1IC0xLjM4LC0wLjI5IC0yLjg0LC0wLjIgLTQuMTk5OTk5OSwwLjI5IC0yLjMxLC00Ljk4IC0yLjEzLC04Ljk5IC0xLjc2LC0xMS4wNSAtMSwxLjA1IC0xLjk0LDIuMTUgLTIuNzUsMy4zMyAtMC42LDIuNDcgLTAuNzcsNi4wMiAxLjAxLDEwLjMgLTIuMDYsMi43IC0yLjE2LDYuNTIgLTAuMDEsOS4zNSAwLjE4LDAuMjMgMC4zNywwLjQ1IDAuNTcsMC42NSAtMC45NCwzLjIgLTEuMzYsNi4yOSAtMS40OSw4Ljk0IDAuMjQsMC4zMyAwLjI0LDAuNiAwLjQ4LDAuOTIgMS4yMywxLjU3IDIuNzYsMi44OSA0LjI1LDQuMDkgLTAuMTgsLTIuODEgMC4wMSwtNi45NSAxLjc0OTk5OTksLTExLjYxIDEuMiwwLjA5IDIuNDEsLTAuMDkgMy41NSwtMC41NyAwLjY2LDAuNTcgMS4zNCwxLjE1IDIuMDcsMS43NCAyLjUsMS45OCA1LDMuNTMgNy40Myw0Ljc0IC0wLjEyLDEuMjQgMC4xOSwyLjUyIDAuOTksMy41OSAxLjcyLDIuMjIgNC45MSwyLjY0IDcuMTMsMC45NCAwLjQ2LC0wLjM2IDAuODMsLTAuNzggMS4xMywtMS4yNCAzLjk3LDAuODggNy40NCwxLjA0IDEwLjAxLDEuMDQgMC4zOSwwIDIuMjIsLTIuNDkgMy4yNiwtNC4wMyAtMS41NiwwLjMzIC02LjIsMC45NyAtMTIuNTUsLTAuODYgLTAuMTUsLTAuNzEgLTAuNDQsLTEuNCAtMC45MSwtMi4wMiAtMS42MiwtMi4xMSAtNC41NiwtMi41NyAtNi43NiwtMS4xNSAtMi4yLC0xLjIgLTQuNTEsLTIuNyAtNi44OSwtNC41OSAtMC40OCwtMC4zOCAtMC45NSwtMC43NiAtMS4zOSwtMS4xNCAxLjQ1LC0yLjI5IDEuNjEsLTUuMjMgMC4zMiwtNy43IDAuMywtMC4yOSAwLjU4LC0wLjU5IDAuODksLTAuODggMi4zNiwtMi4yIDQuNTgsLTMuOTYgNi42NiwtNS4zOCAtMC4wOSwtMC4wOCAtMC4xNiwtMC4xNiAtMC4yNSwtMC4yNCAwLjA5LDAuMDggMC4xNiwwLjE2IDAuMjUsMC4yNCB2IDAgYyAzLjE4LDIuOTQgNi41Niw1LjczIDkuNzYsOC4yMyAtMC44NSwxLjc5IC0wLjcyLDMuOTggMC41Nyw1LjY2IHoiLz4mI3hhOzwvc3ZnPg==;" parent="1" vertex="1">
          <mxGeometry x="110.00000000000011" y="299.5" width="51" height="51" as="geometry" />
        </mxCell>
        <mxCell id="MV-CaAHBzK1avhQ4tYMH-22" style="edgeStyle=orthogonalEdgeStyle;rounded=0;orthogonalLoop=1;jettySize=auto;html=1;" edge="1" parent="1" source="Rhveo0W2Fqeqg5HtCw4J-2" target="Rhveo0W2Fqeqg5HtCw4J-14">
          <mxGeometry relative="1" as="geometry" />
        </mxCell>
        <mxCell id="Rhveo0W2Fqeqg5HtCw4J-2" value="App Service Plan" style="shape=image;verticalLabelPosition=bottom;labelBackgroundColor=#ffffff;verticalAlign=top;aspect=fixed;imageAspect=0;image=data:image/svg+xml,PHN2ZyB4bWxuczpjYz0iaHR0cDovL2NyZWF0aXZlY29tbW9ucy5vcmcvbnMjIiB4bWxuczpkYz0iaHR0cDovL3B1cmwub3JnL2RjL2VsZW1lbnRzLzEuMS8iIHhtbG5zOmlua3NjYXBlPSJodHRwOi8vd3d3Lmlua3NjYXBlLm9yZy9uYW1lc3BhY2VzL2lua3NjYXBlIiB4bWxuczpyZGY9Imh0dHA6Ly93d3cudzMub3JnLzE5OTkvMDIvMjItcmRmLXN5bnRheC1ucyMiIHhtbG5zOnNvZGlwb2RpPSJodHRwOi8vc29kaXBvZGkuc291cmNlZm9yZ2UubmV0L0RURC9zb2RpcG9kaS0wLmR0ZCIgeG1sbnM6c3ZnPSJodHRwOi8vd3d3LnczLm9yZy8yMDAwL3N2ZyIgeG1sbnM9Imh0dHA6Ly93d3cudzMub3JnLzIwMDAvc3ZnIiB4bWxuczp4bGluaz0iaHR0cDovL3d3dy53My5vcmcvMTk5OS94bGluayIgdmVyc2lvbj0iMS4xIiBpZD0ic3ZnNDkwODMiIGlua3NjYXBlOnZlcnNpb249IjAuOTIuMyAoMjQwNTU0NiwgMjAxOC0wMy0xMSkiIHNvZGlwb2RpOmRvY25hbWU9ImFwcF9zZXJ2aWNlX3BsYW5zLnN2ZyIgeD0iMHB4IiB5PSIwcHgiIHZpZXdCb3g9IjAgMCAyNS4xNCAyNS4xMyIgc3R5bGU9ImVuYWJsZS1iYWNrZ3JvdW5kOm5ldyAwIDAgMjUuMTQgMjUuMTM7IiB4bWw6c3BhY2U9InByZXNlcnZlIj4mI3hhOzxzb2RpcG9kaTpuYW1lZHZpZXcgYm9yZGVyY29sb3I9IiM2NjY2NjYiIGJvcmRlcm9wYWNpdHk9IjEiIGZpdC1tYXJnaW4tYm90dG9tPSIwIiBmaXQtbWFyZ2luLWxlZnQ9IjAiIGZpdC1tYXJnaW4tcmlnaHQ9IjAiIGZpdC1tYXJnaW4tdG9wPSIwIiBncmlkdG9sZXJhbmNlPSIxMCIgZ3VpZGV0b2xlcmFuY2U9IjEwIiBpZD0ibmFtZWR2aWV3NDkwODUiIGlua3NjYXBlOmN1cnJlbnQtbGF5ZXI9InN2ZzQ5MDgzIiBpbmtzY2FwZTpjeD0iMTIuMTY0NDY2IiBpbmtzY2FwZTpjeT0iMTQuNDkzNjA4IiBpbmtzY2FwZTpwYWdlb3BhY2l0eT0iMCIgaW5rc2NhcGU6cGFnZXNoYWRvdz0iMiIgaW5rc2NhcGU6d2luZG93LWhlaWdodD0iMTAxNyIgaW5rc2NhcGU6d2luZG93LW1heGltaXplZD0iMSIgaW5rc2NhcGU6d2luZG93LXdpZHRoPSIxOTIwIiBpbmtzY2FwZTp3aW5kb3cteD0iLTgiIGlua3NjYXBlOndpbmRvdy15PSItOCIgaW5rc2NhcGU6em9vbT0iMTYuMjg1MTQ4IiBvYmplY3R0b2xlcmFuY2U9IjEwIiBwYWdlY29sb3I9IiNmZmZmZmYiIHNob3dncmlkPSJmYWxzZSI+JiN4YTsJPC9zb2RpcG9kaTpuYW1lZHZpZXc+JiN4YTs8ZyBpZD0iZzQ5MDgxIiB0cmFuc2Zvcm09InRyYW5zbGF0ZSgwLC0wLjAwNDU0MDUpIj4mI3hhOwk8dGl0bGUgaWQ9InRpdGxlNDkwMzYiPlBhZ2UtMTwvdGl0bGU+JiN4YTsJPGcgaWQ9Imdyb3VwNDcwOS0xIiB0cmFuc2Zvcm09InRyYW5zbGF0ZSgwLC0zLjA5ODczKSI+JiN4YTsJCTx0aXRsZSBpZD0idGl0bGU0OTAzOCI+QXBwIFNlcnZpY2UgcGxhbnM8L3RpdGxlPiYjeGE7CQk8ZyBpZD0ic2hhcGU0NzEwLTIiIHRyYW5zZm9ybT0idHJhbnNsYXRlKDAsLTAuMDA2NzI5NSkiPiYjeGE7CQkJPHRpdGxlIGlkPSJ0aXRsZTQ5MDQwIj5TaGVldC40NzEwPC90aXRsZT4mI3hhOwkJCTxwYXRoIGlkPSJwYXRoNDkwNDIiIGlua3NjYXBlOmNvbm5lY3Rvci1jdXJ2YXR1cmU9IjAiIHN0eWxlPSJmaWxsOiMzRTNFM0U7IiBkPSJNMCwzLjk1YzAtMC40NiwwLjM4LTAuODQsMC44NS0wLjg0aDEzLjAyICAgICBjMC40NywwLDAuODQsMC4zOCwwLjg0LDAuODR2MjMuNDRjMCwwLjQ3LTAuMzcsMC44NC0wLjg0LDAuODRIMC44NUMwLjM4LDI4LjIzLDAsMjcuODYsMCwyNy4zOVYzLjk1eiIvPiYjeGE7CQk8L2c+JiN4YTsJCTxnIGlkPSJzaGFwZTQ3MTEtNCIgdHJhbnNmb3JtPSJ0cmFuc2xhdGUoMi4yNDQ2NiwtMTkuNzI2OSkiPiYjeGE7CQkJPHRpdGxlIGlkPSJ0aXRsZTQ5MDQ1Ij5TaGVldC40NzExPC90aXRsZT4mI3hhOwkJCTxwYXRoIGlkPSJwYXRoNDkwNDciIGlua3NjYXBlOmNvbm5lY3Rvci1jdXJ2YXR1cmU9IjAiIHN0eWxlPSJmaWxsOiMxRTFFMUU7IiBkPSJNMC44NywyNS40OWMwLDAtMC44NywwLTAuODcsMS4yNSAgICAgYzAsMC4yNywwLDAuMjcsMCwwLjI3czAsMS4yMiwwLjg3LDEuMjJjOC41LDAsOC41LDAsOC41LDBzMC44NiwwLDAuODYtMS4yMmMwLTAuMjcsMC0wLjI3LDAtMC4yN3MwLTEuMjUtMC44Ni0xLjI1ICAgICBjLTMuOTUsMC0zLjk1LDAtMy45NSwwSDAuODd6Ii8+JiN4YTsJCTwvZz4mI3hhOwkJPGcgaWQ9InNoYXBlNDcxMi02IiB0cmFuc2Zvcm09InRyYW5zbGF0ZSgyLjQ5NDA2LC0xOS44MTAxKSI+JiN4YTsJCQk8dGl0bGUgaWQ9InRpdGxlNDkwNTAiPlNoZWV0LjQ3MTI8L3RpdGxlPiYjeGE7CQkJPHBhdGggaWQ9InBhdGg0OTA1MiIgaW5rc2NhcGU6Y29ubmVjdG9yLWN1cnZhdHVyZT0iMCIgc3R5bGU9ImZpbGw6I0I4RDQzMjsiIGQ9Ik0wLDI2LjkzYzAtMC42OCwwLjU4LTEuMjgsMS4yNi0xLjI4ICAgICBjMC42OSwwLDEuMjMsMC42LDEuMjMsMS4yOGMwLDAuNzQtMC41NCwxLjMtMS4yMywxLjNDMC41OCwyOC4yMywwLDI3LjY3LDAsMjYuOTN6Ii8+JiN4YTsJCTwvZz4mI3hhOwkJPGcgaWQ9InNoYXBlNDcxMy04IiB0cmFuc2Zvcm09InRyYW5zbGF0ZSgyLjI0NDY2LC0xNS4wNjczKSI+JiN4YTsJCQk8dGl0bGUgaWQ9InRpdGxlNDkwNTUiPlNoZWV0LjQ3MTM8L3RpdGxlPiYjeGE7CQkJPHBhdGggaWQ9InBhdGg0OTA1NyIgaW5rc2NhcGU6Y29ubmVjdG9yLWN1cnZhdHVyZT0iMCIgc3R5bGU9ImZpbGw6IzFFMUUxRTsiIGQ9Ik0wLjg3LDI1LjQ5YzAsMC0wLjg3LDAtMC44NywxLjI1ICAgICBjMCwwLjI3LDAsMC4yNywwLDAuMjdzMCwxLjIyLDAuODcsMS4yMmM4LjUsMCw4LjUsMCw4LjUsMHMwLjg2LDAsMC44Ni0xLjIyYzAtMC4yNywwLTAuMjcsMC0wLjI3czAtMS4yNS0wLjg2LTEuMjUgICAgIGMtMy45NSwwLTMuOTUsMC0zLjk1LDBIMC44N3oiLz4mI3hhOwkJPC9nPiYjeGE7CQk8ZyBpZD0ic2hhcGU0NzE0LTEwIiB0cmFuc2Zvcm09InRyYW5zbGF0ZSgyLjQ5NDA2LC0xNS4xNTA1KSI+JiN4YTsJCQk8dGl0bGUgaWQ9InRpdGxlNDkwNjAiPlNoZWV0LjQ3MTQ8L3RpdGxlPiYjeGE7CQkJPHBhdGggaWQ9InBhdGg0OTA2MiIgaW5rc2NhcGU6Y29ubmVjdG9yLWN1cnZhdHVyZT0iMCIgc3R5bGU9ImZpbGw6I0I4RDQzMjsiIGQ9Ik0wLDI2LjkzYzAtMC42OCwwLjU4LTEuMjgsMS4yNi0xLjI4ICAgICBjMC42OSwwLDEuMjMsMC42LDEuMjMsMS4yOGMwLDAuNzQtMC41NCwxLjMtMS4yMywxLjNDMC41OCwyOC4yMywwLDI3LjY3LDAsMjYuOTN6Ii8+JiN4YTsJCTwvZz4mI3hhOwkJPGcgaWQ9InNoYXBlNDcxNS0xMiIgdHJhbnNmb3JtPSJ0cmFuc2xhdGUoMi4yNDQ2NiwtMTAuNDA3NykiPiYjeGE7CQkJPHRpdGxlIGlkPSJ0aXRsZTQ5MDY1Ij5TaGVldC40NzE1PC90aXRsZT4mI3hhOwkJCTxwYXRoIGlkPSJwYXRoNDkwNjciIGlua3NjYXBlOmNvbm5lY3Rvci1jdXJ2YXR1cmU9IjAiIHN0eWxlPSJmaWxsOiMxRTFFMUU7IiBkPSJNMC44NywyNS40MWMwLDAtMC44NywwLTAuODcsMS4yOCAgICAgYzAsMC4yOCwwLDAuMjgsMCwwLjI4czAsMS4yNiwwLjg3LDEuMjZjOC41LDAsOC41LDAsOC41LDBzMC44NiwwLDAuODYtMS4yNmMwLTAuMjgsMC0wLjI4LDAtMC4yOHMwLTEuMjgtMC44Ni0xLjI4ICAgICBjLTMuOTUsMC0zLjk1LDAtMy45NSwwSDAuODd6Ii8+JiN4YTsJCTwvZz4mI3hhOwkJPGcgaWQ9InNoYXBlNDcxNi0xNCIgdHJhbnNmb3JtPSJ0cmFuc2xhdGUoMi40OTQwNiwtMTAuNDkwOSkiPiYjeGE7CQkJPHRpdGxlIGlkPSJ0aXRsZTQ5MDcwIj5TaGVldC40NzE2PC90aXRsZT4mI3hhOwkJCTxwYXRoIGlkPSJwYXRoNDkwNzIiIGlua3NjYXBlOmNvbm5lY3Rvci1jdXJ2YXR1cmU9IjAiIHN0eWxlPSJmaWxsOiNCOEQ0MzI7IiBkPSJNMCwyNi45M2MwLTAuNjgsMC41OC0xLjI4LDEuMjYtMS4yOCAgICAgYzAuNjksMCwxLjIzLDAuNiwxLjIzLDEuMjhjMCwwLjc0LTAuNTQsMS4zLTEuMjMsMS4zQzAuNTgsMjguMjMsMCwyNy42NywwLDI2LjkzeiIvPiYjeGE7CQk8L2c+JiN4YTsJCTxnIGlkPSJzaGFwZTQ3MTctMTYiIHRyYW5zZm9ybT0idHJhbnNsYXRlKDQuMTk2OCkiPiYjeGE7CQkJPHRpdGxlIGlkPSJ0aXRsZTQ5MDc1Ij5DbG91ZCAjNjwvdGl0bGU+JiN4YTsJCQk8cGF0aCBpZD0icGF0aDQ5MDc3IiBpbmtzY2FwZTpjb25uZWN0b3ItY3VydmF0dXJlPSIwIiBzdHlsZT0iZmlsbDojNTlCNEQ5OyIgZD0iTTIwLjk0LDI1Ljg0YzAtMS4zNi0xLjEyLTIuNDgtMi40LTIuNDggICAgIGMtMC4wOCwwLTAuMTYsMC0wLjMyLDBjMC4xNi0wLjU2LDAuMjQtMS4xMiwwLjI0LTEuNzZjMC0zLjYtMi44OC02LjU1LTYuNDctNi41NWMtMi44OCwwLTUuMjgsMS44NC02LjE2LDQuNDcgICAgIGMtMC40OC0wLjE2LTAuOTUtMC4yNC0xLjQzLTAuMjRjLTIuNDgsMC00LjQsMi00LjQsNC40OHMyLDQuNDcsNC40LDQuNDdoMTQuMzhDMTkuOTgsMjguMTUsMjAuOTQsMjcuMTIsMjAuOTQsMjUuODR6Ii8+JiN4YTsJCTwvZz4mI3hhOwk8L2c+JiN4YTs8L2c+JiN4YTs8L3N2Zz4=;" parent="1" vertex="1">
          <mxGeometry x="111" y="102.56000000000002" width="50" height="50" as="geometry" />
        </mxCell>
        <mxCell id="MV-CaAHBzK1avhQ4tYMH-10" style="edgeStyle=orthogonalEdgeStyle;rounded=0;orthogonalLoop=1;jettySize=auto;html=1;" edge="1" parent="1" source="Rhveo0W2Fqeqg5HtCw4J-3" target="Rhveo0W2Fqeqg5HtCw4J-4">
          <mxGeometry relative="1" as="geometry" />
        </mxCell>
        <mxCell id="MV-CaAHBzK1avhQ4tYMH-11" value="" style="edgeStyle=orthogonalEdgeStyle;rounded=0;orthogonalLoop=1;jettySize=auto;html=1;" edge="1" parent="1" source="Rhveo0W2Fqeqg5HtCw4J-3" target="Rhveo0W2Fqeqg5HtCw4J-6">
          <mxGeometry relative="1" as="geometry" />
        </mxCell>
        <mxCell id="MV-CaAHBzK1avhQ4tYMH-12" style="edgeStyle=orthogonalEdgeStyle;rounded=0;orthogonalLoop=1;jettySize=auto;html=1;entryX=0;entryY=0;entryDx=0;entryDy=0;entryPerimeter=0;" edge="1" parent="1" source="Rhveo0W2Fqeqg5HtCw4J-3" target="Rhveo0W2Fqeqg5HtCw4J-5">
          <mxGeometry relative="1" as="geometry" />
        </mxCell>
        <mxCell id="MV-CaAHBzK1avhQ4tYMH-13" style="edgeStyle=orthogonalEdgeStyle;rounded=0;orthogonalLoop=1;jettySize=auto;html=1;" edge="1" parent="1" source="Rhveo0W2Fqeqg5HtCw4J-3" target="Rhveo0W2Fqeqg5HtCw4J-19">
          <mxGeometry relative="1" as="geometry" />
        </mxCell>
        <mxCell id="Rhveo0W2Fqeqg5HtCw4J-3" value="Monitor" style="shape=image;verticalLabelPosition=bottom;labelBackgroundColor=#ffffff;verticalAlign=top;aspect=fixed;imageAspect=0;image=data:image/svg+xml,PHN2ZyB4bWxuczpjYz0iaHR0cDovL2NyZWF0aXZlY29tbW9ucy5vcmcvbnMjIiB4bWxuczpkYz0iaHR0cDovL3B1cmwub3JnL2RjL2VsZW1lbnRzLzEuMS8iIHhtbG5zOmlua3NjYXBlPSJodHRwOi8vd3d3Lmlua3NjYXBlLm9yZy9uYW1lc3BhY2VzL2lua3NjYXBlIiB4bWxuczpyZGY9Imh0dHA6Ly93d3cudzMub3JnLzE5OTkvMDIvMjItcmRmLXN5bnRheC1ucyMiIHhtbG5zOnNvZGlwb2RpPSJodHRwOi8vc29kaXBvZGkuc291cmNlZm9yZ2UubmV0L0RURC9zb2RpcG9kaS0wLmR0ZCIgeG1sbnM6c3ZnPSJodHRwOi8vd3d3LnczLm9yZy8yMDAwL3N2ZyIgeG1sbnM9Imh0dHA6Ly93d3cudzMub3JnLzIwMDAvc3ZnIiB4bWxuczp4bGluaz0iaHR0cDovL3d3dy53My5vcmcvMTk5OS94bGluayIgdmVyc2lvbj0iMS4xIiBpZD0ic3ZnNTkwNDkiIGlua3NjYXBlOnZlcnNpb249IjAuOTIuMyAoMjQwNTU0NiwgMjAxOC0wMy0xMSkiIHNvZGlwb2RpOmRvY25hbWU9ImF6dXJlX21vbml0b3Jpbmcuc3ZnIiB4PSIwcHgiIHk9IjBweCIgdmlld0JveD0iMCAwIDM3LjUxIDM3LjUxIiBzdHlsZT0iZW5hYmxlLWJhY2tncm91bmQ6bmV3IDAgMCAzNy41MSAzNy41MTsiIHhtbDpzcGFjZT0icHJlc2VydmUiPiYjeGE7PHNvZGlwb2RpOm5hbWVkdmlldyBib3JkZXJjb2xvcj0iIzY2NjY2NiIgYm9yZGVyb3BhY2l0eT0iMSIgZml0LW1hcmdpbi1ib3R0b209IjAiIGZpdC1tYXJnaW4tbGVmdD0iMCIgZml0LW1hcmdpbi1yaWdodD0iMCIgZml0LW1hcmdpbi10b3A9IjAiIGdyaWR0b2xlcmFuY2U9IjEwIiBndWlkZXRvbGVyYW5jZT0iMTAiIGlkPSJuYW1lZHZpZXc1OTA1MSIgaW5rc2NhcGU6Y3VycmVudC1sYXllcj0ic3ZnNTkwNDkiIGlua3NjYXBlOmN4PSIyOC40Mzg0NjYiIGlua3NjYXBlOmN5PSIxOS4zMzkwODkiIGlua3NjYXBlOnBhZ2VvcGFjaXR5PSIwIiBpbmtzY2FwZTpwYWdlc2hhZG93PSIyIiBpbmtzY2FwZTp3aW5kb3ctaGVpZ2h0PSIxMDE3IiBpbmtzY2FwZTp3aW5kb3ctbWF4aW1pemVkPSIxIiBpbmtzY2FwZTp3aW5kb3ctd2lkdGg9IjE5MjAiIGlua3NjYXBlOndpbmRvdy14PSItOCIgaW5rc2NhcGU6d2luZG93LXk9Ii04IiBpbmtzY2FwZTp6b29tPSIxMS43ODc1NDkiIG9iamVjdHRvbGVyYW5jZT0iMTAiIHBhZ2Vjb2xvcj0iI2ZmZmZmZiIgc2hvd2dyaWQ9ImZhbHNlIj4mI3hhOwk8L3NvZGlwb2RpOm5hbWVkdmlldz4mI3hhOzxnIGlkPSJnNTkwNDciIHRyYW5zZm9ybT0idHJhbnNsYXRlKC0wLjc0ODg1MTgsLTAuNzUzMTEyMjQpIj4mI3hhOwk8dGl0bGUgaWQ9InRpdGxlNTg5NzYiPlBhZ2UtMTwvdGl0bGU+JiN4YTsJPGcgaWQ9Imdyb3VwNTc0OC0xIiB0cmFuc2Zvcm09InRyYW5zbGF0ZSgxLjIzNDQ1LC0yLjUwNjg2KSI+JiN4YTsJCTx0aXRsZSBpZD0idGl0bGU1ODk3OCI+QXp1cmUgTW9uaXRvcmluZzwvdGl0bGU+JiN4YTsJCTxnIGlkPSJncm91cDU3NDktMiI+JiN4YTsJCQk8dGl0bGUgaWQ9InRpdGxlNTg5ODAiPmczODE0PC90aXRsZT4mI3hhOwkJCTxnIGlkPSJzaGFwZTU3NTAtMyIgdHJhbnNmb3JtPSJ0cmFuc2xhdGUoMTMuOTM0MiwtMi4wMzMyNCkiPiYjeGE7CQkJCTx0aXRsZSBpZD0idGl0bGU1ODk4MiI+cGF0aDM3NzU8L3RpdGxlPiYjeGE7CQkJCTxwYXRoIGlkPSJwYXRoNTg5ODQiIGlua3NjYXBlOmNvbm5lY3Rvci1jdXJ2YXR1cmU9IjAiIHN0eWxlPSJmaWxsOiNGRkZGRkY7IiBkPSJNMi43Miw4LjU5Yy04LjU1LDAuOS0xNC43NSw4LjU2LTEzLjg1LDE3LjExICAgICAgYzAuOSw4LjU1LDguNTYsMTQuNzUsMTcuMTEsMTMuODVjOC41NS0wLjksMTQuNzUtOC41NiwxMy44NS0xNy4xMWMtMC40NC00LjE1LTIuNTMtNy45Ni01LjgtMTAuNTZDMTEuMyw5LjY4LDcuOSw4LjQ5LDQuMzksOC41ICAgICAgQzMuODMsOC41LDMuMjcsOC41MywyLjcyLDguNTl6Ii8+JiN4YTsJCQk8L2c+JiN4YTsJCQk8ZyBpZD0ic2hhcGU1NzUxLTUiIHRyYW5zZm9ybT0idHJhbnNsYXRlKDUuODc3OTcsLTE2LjUyMjUpIj4mI3hhOwkJCQk8dGl0bGUgaWQ9InRpdGxlNTg5ODciPnBhdGgzNzc3PC90aXRsZT4mI3hhOwkJCQk8cGF0aCBpZD0icGF0aDU4OTg5IiBpbmtzY2FwZTpjb25uZWN0b3ItY3VydmF0dXJlPSIwIiBzdHlsZT0iZmlsbDojN0ZCQTAwO2ZpbGwtb3BhY2l0eTowLjQ7IiBkPSJNNiwzNC40bC0zLjc1LTMuMDcgICAgICBDMC42OCwzMy41Ny0wLjExLDM2LjI3LDAsMzkuMDFsNC44NC0wLjUxYzAtMS40NiwwLjQxLTIuODgsMS4xOS00LjExTDYsMzQuNHoiLz4mI3hhOwkJCQk8cGF0aCBpZD0icGF0aDU4OTkxIiBpbmtzY2FwZTpjb25uZWN0b3ItY3VydmF0dXJlPSIwIiBzdHlsZT0iZmlsbDpub25lOyIgZD0iTTYsMzQuNGwtMy43NS0zLjA3QzAuNjgsMzMuNTctMC4xMSwzNi4yNywwLDM5LjAxICAgICAgbDQuODQtMC41MWMwLTEuNDYsMC40MS0yLjg4LDEuMTktNC4xMSIvPiYjeGE7CQkJPC9nPiYjeGE7CQkJPGcgaWQ9InNoYXBlNTc1Mi04IiB0cmFuc2Zvcm09InRyYW5zbGF0ZSgxNy44NTU1LC0yMy40OTc1KSI+JiN4YTsJCQkJPHRpdGxlIGlkPSJ0aXRsZTU4OTk0Ij5wYXRoMzc3OTwvdGl0bGU+JiN4YTsJCQkJPHBhdGggaWQ9InBhdGg1ODk5NiIgaW5rc2NhcGU6Y29ubmVjdG9yLWN1cnZhdHVyZT0iMCIgc3R5bGU9ImZpbGw6IzdGQkEwMDtmaWxsLW9wYWNpdHk6MC44OyIgZD0iTTQuNjEsMzguOThsMy4wNy0zLjc1ICAgICAgQzUuNDQsMzMuNjYsMi43NCwzMi44NywwLDMyLjk4bDAuNTEsNC44NGMxLjQ1LDAsMi44NywwLjQxLDQuMSwxLjE5TDQuNjEsMzguOTh6Ii8+JiN4YTsJCQkJPHBhdGggaWQ9InBhdGg1ODk5OCIgaW5rc2NhcGU6Y29ubmVjdG9yLWN1cnZhdHVyZT0iMCIgc3R5bGU9ImZpbGw6bm9uZTsiIGQ9Ik00LjYxLDM4Ljk4bDMuMDctMy43NSAgICAgIEM1LjQ0LDMzLjY2LDIuNzQsMzIuODcsMCwzMi45OGwwLjUxLDQuODRjMS40NSwwLDIuODcsMC40MSw0LjEsMS4xOSIvPiYjeGE7CQkJPC9nPiYjeGE7CQkJPGcgaWQ9InNoYXBlNTc1My0xMSIgdHJhbnNmb3JtPSJ0cmFuc2xhdGUoOS4xNDc5NywtMjIuNDU1KSI+JiN4YTsJCQkJPHRpdGxlIGlkPSJ0aXRsZTU5MDAxIj5wYXRoMzc4MTwvdGl0bGU+JiN4YTsJCQkJPHBhdGggaWQ9InBhdGg1OTAwMyIgaW5rc2NhcGU6Y29ubmVjdG9yLWN1cnZhdHVyZT0iMCIgc3R5bGU9ImZpbGw6IzdGQkEwMDtmaWxsLW9wYWNpdHk6MC42OyIgZD0iTTcuNTIsMzYuOThsLTAuNTEtNC44NyAgICAgIEM0LjMyLDMyLjU5LDEuODUsMzMuOTQsMCwzNS45NWwzLjc1LDMuMDZjMS4wMy0xLjAzLDIuMzMtMS43NSwzLjc1LTIuMDdMNy41MiwzNi45OHoiLz4mI3hhOwkJCQk8cGF0aCBpZD0icGF0aDU5MDA1IiBpbmtzY2FwZTpjb25uZWN0b3ItY3VydmF0dXJlPSIwIiBzdHlsZT0iZmlsbDpub25lOyIgZD0iTTcuNTIsMzYuOThsLTAuNTEtNC44NyAgICAgIEM0LjMyLDMyLjU5LDEuODUsMzMuOTQsMCwzNS45NWwzLjc1LDMuMDZjMS4wMy0xLjAzLDIuMzMtMS43NSwzLjc1LTIuMDciLz4mI3hhOwkJCTwvZz4mI3hhOwkJCTxnIGlkPSJzaGFwZTU3NTQtMTQiIHRyYW5zZm9ybT0idHJhbnNsYXRlKDYuMDI3OTcsLTcuODA3NSkiPiYjeGE7CQkJCTx0aXRsZSBpZD0idGl0bGU1OTAwOCI+cGF0aDM3ODM8L3RpdGxlPiYjeGE7CQkJCTxwYXRoIGlkPSJwYXRoNTkwMTAiIGlua3NjYXBlOmNvbm5lY3Rvci1jdXJ2YXR1cmU9IjAiIHN0eWxlPSJmaWxsOiM3RkJBMDA7ZmlsbC1vcGFjaXR5OjAuMjU7IiBkPSJNNC44NCwzMS40OEwwLDMxLjk5ICAgICAgYzAuNDcsMi43LDEuODIsNS4xNiwzLjg0LDcuMDJsMy4wNi0zLjc1Yy0xLjAzLTEuMDMtMS43NC0yLjMzLTIuMDYtMy43NVYzMS40OHoiLz4mI3hhOwkJCQk8cGF0aCBpZD0icGF0aDU5MDEyIiBpbmtzY2FwZTpjb25uZWN0b3ItY3VydmF0dXJlPSIwIiBzdHlsZT0iZmlsbDpub25lOyIgZD0iTTQuODQsMzEuNDhMMCwzMS45OWMwLjQ3LDIuNywxLjgyLDUuMTYsMy44NCw3LjAyICAgICAgbDMuMDYtMy43NWMtMS4wMy0xLjAzLTEuNzQtMi4zMy0yLjA2LTMuNzUiLz4mI3hhOwkJCTwvZz4mI3hhOwkJCTxnIGlkPSJzaGFwZTU3NTUtMTciIHRyYW5zZm9ybT0idHJhbnNsYXRlKDEwLjM1NTUpIj4mI3hhOwkJCQk8dGl0bGUgaWQ9InRpdGxlNTkwMTUiPnBhdGgzNzg1PC90aXRsZT4mI3hhOwkJCQk8cGF0aCBpZD0icGF0aDU5MDE3IiBpbmtzY2FwZTpjb25uZWN0b3ItY3VydmF0dXJlPSIwIiBzdHlsZT0iZmlsbDojQTBBMUEyOyIgZD0iTTI2LjU3LDIwLjA2Yy0wLjUzLTQuOTktMy4wNC05LjU2LTYuOTUtMTIuNyAgICAgIGMtMC43NC0wLjU4LTEuNTEtMS4xMS0yLjMzLTEuNTdsLTEuNSwyLjgzYzAuNjMsMC4zNywxLjIyLDAuNzgsMS43OSwxLjIzYzYuNzMsNS4zNCw3Ljg1LDE1LjEzLDIuNTEsMjEuODUgICAgICBjLTIuNTksMy4yNy02LjM5LDUuMzYtMTAuNTQsNS44Yy0yLjc1LDAuMjktNS41My0wLjE3LTguMDUtMS4zMkwwLDM5LjAxYzkuMzksNC4zOCwyMC41NCwwLjMxLDI0LjkyLTkuMDcgICAgICBDMjYuMzUsMjYuODYsMjYuOTIsMjMuNDQsMjYuNTcsMjAuMDZ6Ii8+JiN4YTsJCQk8L2c+JiN4YTsJCQk8ZyBpZD0ic2hhcGU1NzU2LTE5IiB0cmFuc2Zvcm09InRyYW5zbGF0ZSgwLC0wLjAwNzUpIj4mI3hhOwkJCQk8dGl0bGUgaWQ9InRpdGxlNTkwMjAiPnBhdGgzNzg3PC90aXRsZT4mI3hhOwkJCQk8cGF0aCBpZD0icGF0aDU5MDIyIiBpbmtzY2FwZTpjb25uZWN0b3ItY3VydmF0dXJlPSIwIiBzdHlsZT0iZmlsbDojQTBBMUEyOyIgZD0iTTguNTMsMzQuMTNjLTYuNjktNS4zOS03Ljc0LTE1LjE4LTIuMzUtMjEuODcgICAgICBjNC44NS02LjAyLDEzLjM4LTcuNTYsMjAuMDMtMy42M2wxLjUtMi44M2MtOC00LjY0LTE4LjE5LTIuNzYtMjQsNC40NGMtNi41Miw4LTUuMzEsMTkuNzcsMi42OSwyNi4yOCAgICAgIGMxLjIyLDAuOTksMi41NiwxLjgzLDMuOTksMi40OWwxLjUtMi44M0MxMC42OSwzNS42NCw5LjU2LDM0Ljk1LDguNTMsMzQuMTN6Ii8+JiN4YTsJCQk8L2c+JiN4YTsJCQk8ZyBpZD0ic2hhcGU1NzU3LTIxIiB0cmFuc2Zvcm09InRyYW5zbGF0ZSgwLC0wLjAwNzUpIj4mI3hhOwkJCQk8dGl0bGUgaWQ9InRpdGxlNTkwMjUiPnBhdGgzNzg5PC90aXRsZT4mI3hhOwkJCQk8cGF0aCBpZD0icGF0aDU5MDI3IiBpbmtzY2FwZTpjb25uZWN0b3ItY3VydmF0dXJlPSIwIiBzdHlsZT0iZmlsbDojRkZGRkZGO2ZpbGwtb3BhY2l0eTowLjI7IiBkPSJNOC41MywzNC4xMyAgICAgIGMtNi42OS01LjM5LTcuNzQtMTUuMTgtMi4zNS0yMS44N2M0Ljg1LTYuMDIsMTMuMzgtNy41NiwyMC4wMy0zLjYzbDEuNS0yLjgzYy04LTQuNjQtMTguMTktMi43Ni0yNCw0LjQ0ICAgICAgYy02LjUyLDgtNS4zMSwxOS43NywyLjY5LDI2LjI4YzEuMjIsMC45OSwyLjU2LDEuODMsMy45OSwyLjQ5bDEuNS0yLjgzQzEwLjY5LDM1LjY0LDkuNTYsMzQuOTUsOC41MywzNC4xM3oiLz4mI3hhOwkJCTwvZz4mI3hhOwkJCTxnIGlkPSJzaGFwZTU3NTgtMjMiIHRyYW5zZm9ybT0idHJhbnNsYXRlKDIzLjc5NTUsLTE5LjkxMjUpIj4mI3hhOwkJCQk8dGl0bGUgaWQ9InRpdGxlNTkwMzAiPnBhdGgzNzkxPC90aXRsZT4mI3hhOwkJCQk8cGF0aCBpZD0icGF0aDU5MDMyIiBpbmtzY2FwZTpjb25uZWN0b3ItY3VydmF0dXJlPSIwIiBzdHlsZT0iZmlsbDojN0ZCQTAwOyIgZD0iTTMuMDYsMzIuNjhMMCwzNi40MyAgICAgIGMwLjczLDAuNzQsMS4zMSwxLjYxLDEuNjksMi41OGg1LjA5QzYuMiwzNi41Nyw0LjkxLDM0LjM3LDMuMDYsMzIuNjh6Ii8+JiN4YTsJCQk8L2c+JiN4YTsJCQk8ZyBpZD0ic2hhcGU1NzU5LTI1IiB0cmFuc2Zvcm09InRyYW5zbGF0ZSgxNi4zNTUxLC0xNC44NSkiPiYjeGE7CQkJCTx0aXRsZSBpZD0idGl0bGU1OTAzNSI+cGF0aDM3OTM8L3RpdGxlPiYjeGE7CQkJCTxwYXRoIGlkPSJwYXRoNTkwMzciIGlua3NjYXBlOmNvbm5lY3Rvci1jdXJ2YXR1cmU9IjAiIHN0eWxlPSJmaWxsOiNERDU5MDA7IiBkPSJNMC40OSwzOC4zOGMtMC44Ni0wLjg1LTAuODctMi4yNC0wLjAyLTMuMSAgICAgIGMwLjQxLTAuNDIsMC45OC0wLjY1LDEuNTYtMC42NWMwLjU4LTAuMDEsMS4xMywwLjIsMS41NSwwLjZoMTEuMmMwLjg4LTAuMDUsMS42NCwwLjYyLDEuNjgsMS41MXMtMC42MiwxLjY0LTEuNTEsMS42OCAgICAgIGMtMC4wNiwwLTAuMTIsMC0wLjE4LDBIMy40N2MtMC4zOSwwLjM2LTAuOTEsMC41Ny0xLjQ0LDAuNTlDMS40NSwzOS4wMSwwLjksMzguNzksMC40OSwzOC4zOHoiLz4mI3hhOwkJCTwvZz4mI3hhOwkJCTxnIGlkPSJzaGFwZTU3NjAtMjciIHRyYW5zZm9ybT0idHJhbnNsYXRlKDE2LjE5OCwtMTYuOTgpIj4mI3hhOwkJCQk8dGl0bGUgaWQ9InRpdGxlNTkwNDAiPnBhdGgzNzk1PC90aXRsZT4mI3hhOwkJCQk8cGF0aCBpZD0icGF0aDU5MDQyIiBpbmtzY2FwZTpjb25uZWN0b3ItY3VydmF0dXJlPSIwIiBzdHlsZT0iZmlsbDojRkY4QzAwOyIgZD0iTTE0LjkzLDM3LjQySDMuNzMgICAgICBjLTAuNDEtMC40LTAuOTctMC42Mi0xLjU0LTAuNjFDMC45OCwzNi44MSwwLDM3Ljc5LDAsMzljMCwwLDAsMC4wMSwwLDAuMDFoMTYuNUMxNi41LDM4LjE0LDE1LjgsMzcuNDMsMTQuOTMsMzcuNDJ6Ii8+JiN4YTsJCQk8L2c+JiN4YTsJCTwvZz4mI3hhOwk8L2c+JiN4YTs8L2c+JiN4YTs8L3N2Zz4=;" parent="1" vertex="1">
          <mxGeometry x="323" y="459.28" width="50" height="50" as="geometry" />
        </mxCell>
        <mxCell id="Rhveo0W2Fqeqg5HtCw4J-4" value="Log Analytics" style="shape=image;verticalLabelPosition=bottom;labelBackgroundColor=#ffffff;verticalAlign=top;aspect=fixed;imageAspect=0;image=data:image/svg+xml,PHN2ZyB4bWxuczpkYz0iaHR0cDovL3B1cmwub3JnL2RjL2VsZW1lbnRzLzEuMS8iIHhtbG5zOmNjPSJodHRwOi8vY3JlYXRpdmVjb21tb25zLm9yZy9ucyMiIHhtbG5zOnJkZj0iaHR0cDovL3d3dy53My5vcmcvMTk5OS8wMi8yMi1yZGYtc3ludGF4LW5zIyIgeG1sbnM6c3ZnPSJodHRwOi8vd3d3LnczLm9yZy8yMDAwL3N2ZyIgeG1sbnM9Imh0dHA6Ly93d3cudzMub3JnLzIwMDAvc3ZnIiB4bWxuczpzb2RpcG9kaT0iaHR0cDovL3NvZGlwb2RpLnNvdXJjZWZvcmdlLm5ldC9EVEQvc29kaXBvZGktMC5kdGQiIHhtbG5zOmlua3NjYXBlPSJodHRwOi8vd3d3Lmlua3NjYXBlLm9yZy9uYW1lc3BhY2VzL2lua3NjYXBlIiB2ZXJzaW9uPSIxLjEiIGlkPSJzdmc4OTE5OCIgaW5rc2NhcGU6dmVyc2lvbj0iMC45Mi4zICgyNDA1NTQ2LCAyMDE4LTAzLTExKSIgc29kaXBvZGk6ZG9jbmFtZT0ib3BlcmF0aW9uc19tYW5hZ2VtZW50X3N1aXRlX29tcy5zdmciIHg9IjBweCIgeT0iMHB4IiB2aWV3Qm94PSIwIDAgNzMuMDUwMDAxIDczLjA1IiB4bWw6c3BhY2U9InByZXNlcnZlIiB3aWR0aD0iNzMuMDUwMDAzIiBoZWlnaHQ9IjczLjA1MDAwMyI+PG1ldGFkYXRhIGlkPSJtZXRhZGF0YTYyMzIiPjxyZGY6UkRGPjxjYzpXb3JrIHJkZjphYm91dD0iIj48ZGM6Zm9ybWF0PmltYWdlL3N2Zyt4bWw8L2RjOmZvcm1hdD48ZGM6dHlwZSByZGY6cmVzb3VyY2U9Imh0dHA6Ly9wdXJsLm9yZy9kYy9kY21pdHlwZS9TdGlsbEltYWdlIi8+PGRjOnRpdGxlLz48L2NjOldvcms+PC9yZGY6UkRGPjwvbWV0YWRhdGE+PGRlZnMgaWQ9ImRlZnM2MjMwIj4mI3hhOwkmI3hhOyYjeGE7CSYjeGE7JiN4YTsJJiN4YTsmI3hhOwkmI3hhOyYjeGE7CSYjeGE7JiN4YTsJJiN4YTsmI3hhOwkmI3hhOyYjeGE7CSYjeGE7JiN4YTsJJiN4YTsmI3hhOwkmI3hhOyYjeGE7CSYjeGE7JiN4YTsJJiN4YTsmI3hhOwkmI3hhOyYjeGE7CSYjeGE7JiN4YTsJJiN4YTsmI3hhOwkmI3hhOyYjeGE7CSYjeGE7JiN4YTsJJiN4YTsmI3hhOwkmI3hhOyYjeGE7CSYjeGE7JiN4YTsJJiN4YTsmI3hhOwkmI3hhOyYjeGE7CSYjeGE7JiN4YTsJJiN4YTsmI3hhOwkmI3hhOyYjeGE7CSYjeGE7JiN4YTsJJiN4YTsmI3hhOwkmI3hhOyYjeGE7CSYjeGE7PC9kZWZzPiYjeGE7PGZpbHRlciBpZD0iZmlsdGVyXzIiPiYjeGE7CTxmZUdhdXNzaWFuQmx1ciBpZD0iZmVHYXVzc2lhbkJsdXI4ODk1NSIgc3RkRGV2aWF0aW9uPSIyIi8+JiN4YTs8L2ZpbHRlcj4mI3hhOzxzb2RpcG9kaTpuYW1lZHZpZXcgYm9yZGVyY29sb3I9IiM2NjY2NjYiIGJvcmRlcm9wYWNpdHk9IjEiIGZpdC1tYXJnaW4tYm90dG9tPSIwIiBmaXQtbWFyZ2luLWxlZnQ9IjAiIGZpdC1tYXJnaW4tcmlnaHQ9IjAiIGZpdC1tYXJnaW4tdG9wPSIwIiBncmlkdG9sZXJhbmNlPSIxMCIgZ3VpZGV0b2xlcmFuY2U9IjEwIiBpZD0ibmFtZWR2aWV3ODkyMDAiIGlua3NjYXBlOmN1cnJlbnQtbGF5ZXI9InN2Zzg5MTk4IiBpbmtzY2FwZTpjeD0iMTMuNDUyMjgyIiBpbmtzY2FwZTpjeT0iNDEuMjY2NTYzIiBpbmtzY2FwZTpwYWdlb3BhY2l0eT0iMCIgaW5rc2NhcGU6cGFnZXNoYWRvdz0iMiIgaW5rc2NhcGU6d2luZG93LWhlaWdodD0iMTAxNyIgaW5rc2NhcGU6d2luZG93LW1heGltaXplZD0iMSIgaW5rc2NhcGU6d2luZG93LXdpZHRoPSIxOTIwIiBpbmtzY2FwZTp3aW5kb3cteD0iLTgiIGlua3NjYXBlOndpbmRvdy15PSItOCIgaW5rc2NhcGU6em9vbT0iNi42NjcwOTc2IiBvYmplY3R0b2xlcmFuY2U9IjEwIiBwYWdlY29sb3I9IiNmZmZmZmYiIHNob3dncmlkPSJmYWxzZSI+JiN4YTsJPC9zb2RpcG9kaTpuYW1lZHZpZXc+JiN4YTsmI3hhOzxyZWN0IGlkPSJyZWN0ODg5NjgiIHg9IjcuMzg5OTk5NCIgeT0iMzEuNjkwMDAxIiBzdHlsZT0iZmlsbDojNTliNGQ5IiB3aWR0aD0iNC44Mjk5OTk5IiBoZWlnaHQ9IjQuODI5OTk5OSIvPiYjeGE7JiN4YTs8cmVjdCBpZD0icmVjdDg4OTc2IiB4PSI3LjM4OTk5OTQiIHk9IjM4LjkzOTk5OSIgc3R5bGU9ImZpbGw6IzU5YjRkOSIgd2lkdGg9IjQuODI5OTk5OSIgaGVpZ2h0PSI0LjgyOTk5OTkiLz4mI3hhOyYjeGE7PHBhdGggaWQ9InBhdGg4ODk4NCIgaW5rc2NhcGU6Y29ubmVjdG9yLWN1cnZhdHVyZT0iMCIgc3R5bGU9ImZpbGw6IzU5YjRkOSIgZD0iTSA3LjM5MDAwMDYsMjkuMjggSCAxMi4yMjAwMDEgViAyNC45IGMgLTEuODEsMC45MSAtMy4zMjAwMDA0LDEuOTcgLTQuODMwMDAwNCwzLjE3IHoiLz4mI3hhOyYjeGE7PHJlY3QgaWQ9InJlY3Q4ODk5MiIgeD0iMTQuNjM5OTk5IiB5PSI1My41ODAwMDIiIHN0eWxlPSJmaWxsOiM1OWI0ZDkiIHdpZHRoPSI0LjgyOTk5OTkiIGhlaWdodD0iNC44Mjk5OTk5Ii8+JiN4YTsmI3hhOzxyZWN0IGlkPSJyZWN0ODkwMDAiIHg9IjE0LjYzOTk5OSIgeT0iNjAuODIiIHN0eWxlPSJmaWxsOiM1OWI0ZDkiIHdpZHRoPSI0LjgyOTk5OTkiIGhlaWdodD0iNC44Mjk5OTk5Ii8+JiN4YTsmI3hhOzxyZWN0IGlkPSJyZWN0ODkwMDgiIHg9IjE0LjYzOTk5OSIgeT0iNjguMjIwMDAxIiBzdHlsZT0iZmlsbDojNTliNGQ5IiB3aWR0aD0iNC44Mjk5OTk5IiBoZWlnaHQ9IjQuODI5OTk5OSIvPiYjeGE7JiN4YTs8cmVjdCBpZD0icmVjdDg5MDE2IiB4PSIxNC42Mzk5OTkiIHk9IjQ2LjMzMDAwMiIgc3R5bGU9ImZpbGw6IzU5YjRkOSIgd2lkdGg9IjQuODI5OTk5OSIgaGVpZ2h0PSI0LjgyOTk5OTkiLz4mI3hhOyYjeGE7PHJlY3QgaWQ9InJlY3Q4OTAyNCIgeD0iMCIgeT0iMzguOTM5OTk5IiBzdHlsZT0iZmlsbDojNTliNGQ5IiB3aWR0aD0iNC44Mjk5OTk5IiBoZWlnaHQ9IjQuODI5OTk5OSIvPiYjeGE7JiN4YTs8cmVjdCBpZD0icmVjdDg5MDMyIiB4PSI3LjM4OTk5OTQiIHk9IjYwLjgyIiBzdHlsZT0iZmlsbDojNTliNGQ5IiB3aWR0aD0iNC44Mjk5OTk5IiBoZWlnaHQ9IjQuODI5OTk5OSIvPiYjeGE7JiN4YTs8cmVjdCBpZD0icmVjdDg5MDQwIiB4PSIwIiB5PSI1My41ODAwMDIiIHN0eWxlPSJmaWxsOiM1OWI0ZDkiIHdpZHRoPSI0LjgyOTk5OTkiIGhlaWdodD0iNC44Mjk5OTk5Ii8+JiN4YTsmI3hhOzxyZWN0IGlkPSJyZWN0ODkwNDgiIHg9IjAiIHk9IjQ2LjMzMDAwMiIgc3R5bGU9ImZpbGw6IzU5YjRkOSIgd2lkdGg9IjQuODI5OTk5OSIgaGVpZ2h0PSI0LjgyOTk5OTkiLz4mI3hhOyYjeGE7PHBhdGggaWQ9InBhdGg4OTA1NiIgaW5rc2NhcGU6Y29ubmVjdG9yLWN1cnZhdHVyZT0iMCIgc3R5bGU9ImZpbGw6IzU5YjRkOSIgZD0ibSA3LjM5MDAwMDYsNjkuMjcgYyAxLjUxLDEuMjEgMy4xNzAwMDA0LDIuMjcgNC44MzAwMDA0LDMuMTcgViA2OC4wNiBIIDcuMzkwMDAwNiBaIi8+JiN4YTsmI3hhOzxwYXRoIGlkPSJwYXRoODkwNjQiIGlua3NjYXBlOmNvbm5lY3Rvci1jdXJ2YXR1cmU9IjAiIHN0eWxlPSJmaWxsOiM1OWI0ZDkiIGQ9Ik0gMC42MDAwMDA2MSwzNi41MiBIIDQuOTgwMDAwNiB2IC00LjgzIGggLTEuMjEgYyAtMS4zNiwxLjUxIC0yLjQyLDMuMDIgLTMuMTY5OTk5OTksNC44MyB6Ii8+JiN4YTsmI3hhOzxyZWN0IGlkPSJyZWN0ODkwNzIiIHg9IjcuMzg5OTk5NCIgeT0iNTMuNTgwMDAyIiBzdHlsZT0iZmlsbDojNTliNGQ5IiB3aWR0aD0iNC44Mjk5OTk5IiBoZWlnaHQ9IjQuODI5OTk5OSIvPiYjeGE7JiN4YTs8cGF0aCBpZD0icGF0aDg5MDgwIiBpbmtzY2FwZTpjb25uZWN0b3ItY3VydmF0dXJlPSIwIiBzdHlsZT0iZmlsbDojNTliNGQ5IiBkPSJtIDQzLjc3MDAwMSw2NS42NSBoIDEuMjEgYyAxLjIsLTEuNTEgMi4yNiwtMy4xNyAzLjE3LC00LjgzIGggLTQuMzggeiIvPiYjeGE7JiN4YTs8cmVjdCBpZD0icmVjdDg5MDg4IiB4PSIxNC42Mzk5OTkiIHk9IjM4LjkzOTk5OSIgc3R5bGU9ImZpbGw6IzU5YjRkOSIgd2lkdGg9IjQuODI5OTk5OSIgaGVpZ2h0PSI0LjgyOTk5OTkiLz4mI3hhOyYjeGE7PHJlY3QgaWQ9InJlY3Q4OTA5NiIgeD0iMzYuNTIwMDA0IiB5PSI2MC44MiIgc3R5bGU9ImZpbGw6IzU5YjRkOSIgd2lkdGg9IjQuODI5OTk5OSIgaGVpZ2h0PSI0LjgyOTk5OTkiLz4mI3hhOyYjeGE7PHBhdGggaWQ9InBhdGg4OTEwNCIgaW5rc2NhcGU6Y29ubmVjdG9yLWN1cnZhdHVyZT0iMCIgc3R5bGU9ImZpbGw6IzdmYmEwMCIgZD0ibSA0Ny41NDAwMDEsMCBjIC0xNC4wNCwwIC0yNS41MSwxMS40NyAtMjUuNTEsMjUuNSAwLDcuNTUgMCwyNS41MSAwLDI1LjUxIDAsMCAxOS4wMiwwIDI1LjUxLDAgMTQuMDMsMCAyNS41MSwtMTEuNDcgMjUuNTEsLTI1LjUxIDAsLTE0LjAzIC0xMS40OCwtMjUuNSAtMjUuNTEsLTI1LjUgeiIvPiYjeGE7JiN4YTs8cmVjdCBpZD0icmVjdDg5MTEyIiB4PSIzNC4xMTAwMDEiIHk9IjIxLjg3OTk5OSIgc3R5bGU9ImZpbGw6IzY4MjE3YSIgd2lkdGg9IjQuODI5OTk5OSIgaGVpZ2h0PSIxNC42NCIvPiYjeGE7JiN4YTs8cmVjdCBpZD0icmVjdDg5MTIwIiB4PSI0My43NzAwMDQiIHk9IjI2LjcwOTk5OSIgc3R5bGU9ImZpbGw6IzY4MjE3YSIgd2lkdGg9IjQuODI5OTk5OSIgaGVpZ2h0PSI5LjgxMDAwMDQiLz4mI3hhOyYjeGE7PHJlY3QgaWQ9InJlY3Q4OTEyOCIgeD0iNTMuNTgwMDAyIiB5PSIxNy4wNDk5OTkiIHN0eWxlPSJmaWxsOiM2ODIxN2EiIHdpZHRoPSI0LjgyOTk5OTkiIGhlaWdodD0iMTkuNDY5OTk5Ii8+JiN4YTsmI3hhOzxwYXRoIGlkPSJwYXRoODkxMzYiIGlua3NjYXBlOmNvbm5lY3Rvci1jdXJ2YXR1cmU9IjAiIHN0eWxlPSJmaWxsOiM1OWI0ZDkiIGQ9Im0gMzYuNTIwMDAxLDcyLjQ0IGMgMS44MSwtMC45IDMuMzIsLTEuOTYgNC44MywtMy4xNyB2IC0xLjIxIGggLTQuODMgeiIvPiYjeGE7JiN4YTs8cmVjdCBpZD0icmVjdDg5MTQ0IiB4PSI0My43NzAwMDQiIHk9IjUzLjU4MDAwMiIgc3R5bGU9ImZpbGw6IzU5YjRkOSIgd2lkdGg9IjQuODI5OTk5OSIgaGVpZ2h0PSI0LjgyOTk5OTkiLz4mI3hhOyYjeGE7PHJlY3QgaWQ9InJlY3Q4OTE1MiIgeD0iMzYuNTIwMDA0IiB5PSI1My41ODAwMDIiIHN0eWxlPSJmaWxsOiM1OWI0ZDkiIHdpZHRoPSI0LjgyOTk5OTkiIGhlaWdodD0iNC44Mjk5OTk5Ii8+JiN4YTsmI3hhOzxyZWN0IGlkPSJyZWN0ODkxNjAiIHg9IjIxLjg3OTk5NyIgeT0iNjAuODIiIHN0eWxlPSJmaWxsOiM1OWI0ZDkiIHdpZHRoPSI0LjgyOTk5OTkiIGhlaWdodD0iNC44Mjk5OTk5Ii8+JiN4YTsmI3hhOzxyZWN0IGlkPSJyZWN0ODkxNjgiIHg9IjE0LjYzOTk5OSIgeT0iMjQuMjk5OTk5IiBzdHlsZT0iZmlsbDojNTliNGQ5IiB3aWR0aD0iNC44Mjk5OTk5IiBoZWlnaHQ9IjQuOTgiLz4mI3hhOyYjeGE7PHJlY3QgaWQ9InJlY3Q4OTE3NiIgeD0iMjkuMjc5OTk5IiB5PSI2MC44MiIgc3R5bGU9ImZpbGw6IzU5YjRkOSIgd2lkdGg9IjQuODI5OTk5OSIgaGVpZ2h0PSI0LjgyOTk5OTkiLz4mI3hhOyYjeGE7PHJlY3QgaWQ9InJlY3Q4OTE4NCIgeD0iMjkuMjc5OTk5IiB5PSI2OC4yMjAwMDEiIHN0eWxlPSJmaWxsOiM1OWI0ZDkiIHdpZHRoPSI0LjgyOTk5OTkiIGhlaWdodD0iNC44Mjk5OTk5Ii8+JiN4YTsmI3hhOzxyZWN0IGlkPSJyZWN0ODkxOTIiIHg9IjIxLjg3OTk5NyIgeT0iNTMuNTgwMDAyIiBzdHlsZT0iZmlsbDojNTliNGQ5IiB3aWR0aD0iNC44Mjk5OTk5IiBoZWlnaHQ9IjQuODI5OTk5OSIvPiYjeGE7PC9zdmc+;" parent="1" vertex="1">
          <mxGeometry x="210" y="577" width="56" height="56" as="geometry" />
        </mxCell>
        <mxCell id="MV-CaAHBzK1avhQ4tYMH-23" value="Scale in / Scale out rules&lt;br&gt;CPU utilization based" style="edgeStyle=orthogonalEdgeStyle;rounded=0;orthogonalLoop=1;jettySize=auto;html=1;entryX=1;entryY=0.25;entryDx=0;entryDy=0;exitX=1;exitY=0;exitDx=0;exitDy=0;exitPerimeter=0;" edge="1" parent="1" source="Rhveo0W2Fqeqg5HtCw4J-5" target="Rhveo0W2Fqeqg5HtCw4J-2">
          <mxGeometry relative="1" as="geometry" />
        </mxCell>
        <mxCell id="Rhveo0W2Fqeqg5HtCw4J-5" value="Autoscaling" style="verticalLabelPosition=bottom;html=1;verticalAlign=top;align=center;strokeColor=none;fillColor=#00BEF2;shape=mxgraph.azure.autoscale;" parent="1" vertex="1">
          <mxGeometry x="425" y="593.52" width="60" height="33" as="geometry" />
        </mxCell>
        <mxCell id="MV-CaAHBzK1avhQ4tYMH-15" style="edgeStyle=orthogonalEdgeStyle;rounded=0;orthogonalLoop=1;jettySize=auto;html=1;" edge="1" parent="1" source="Rhveo0W2Fqeqg5HtCw4J-6" target="Rhveo0W2Fqeqg5HtCw4J-8">
          <mxGeometry relative="1" as="geometry" />
        </mxCell>
        <mxCell id="MV-CaAHBzK1avhQ4tYMH-26" value="CPU utilization Alerts" style="edgeLabel;html=1;align=center;verticalAlign=middle;resizable=0;points=[];" vertex="1" connectable="0" parent="MV-CaAHBzK1avhQ4tYMH-15">
          <mxGeometry x="0.059" relative="1" as="geometry">
            <mxPoint as="offset" />
          </mxGeometry>
        </mxCell>
        <mxCell id="Rhveo0W2Fqeqg5HtCw4J-6" value="Alerts" style="aspect=fixed;html=1;points=[];align=center;image;fontSize=12;image=img/lib/azure2/management_governance/Alerts.svg;" parent="1" vertex="1">
          <mxGeometry x="540" y="600" width="47" height="39.28" as="geometry" />
        </mxCell>
        <mxCell id="MV-CaAHBzK1avhQ4tYMH-14" style="edgeStyle=orthogonalEdgeStyle;rounded=0;orthogonalLoop=1;jettySize=auto;html=1;entryX=0;entryY=0.75;entryDx=0;entryDy=0;" edge="1" parent="1" source="Rhveo0W2Fqeqg5HtCw4J-7" target="Rhveo0W2Fqeqg5HtCw4J-4">
          <mxGeometry relative="1" as="geometry" />
        </mxCell>
        <mxCell id="Rhveo0W2Fqeqg5HtCw4J-7" value="App Insights" style="aspect=fixed;html=1;points=[];align=center;image;fontSize=12;image=img/lib/azure2/management_governance/Application_Insights.svg;" parent="1" vertex="1">
          <mxGeometry x="118" y="458.50000000000006" width="36" height="51.55" as="geometry" />
        </mxCell>
        <mxCell id="MV-CaAHBzK1avhQ4tYMH-28" style="edgeStyle=orthogonalEdgeStyle;rounded=0;orthogonalLoop=1;jettySize=auto;html=1;" edge="1" parent="1" source="Rhveo0W2Fqeqg5HtCw4J-8" target="MV-CaAHBzK1avhQ4tYMH-27">
          <mxGeometry relative="1" as="geometry" />
        </mxCell>
        <mxCell id="MV-CaAHBzK1avhQ4tYMH-29" value="Config and Deploy" style="edgeLabel;html=1;align=center;verticalAlign=middle;resizable=0;points=[];" vertex="1" connectable="0" parent="MV-CaAHBzK1avhQ4tYMH-28">
          <mxGeometry x="-0.3581" y="1" relative="1" as="geometry">
            <mxPoint as="offset" />
          </mxGeometry>
        </mxCell>
        <mxCell id="Rhveo0W2Fqeqg5HtCw4J-8" value="Administrator" style="shadow=0;dashed=0;html=1;strokeColor=none;fillColor=#4495D1;labelPosition=center;verticalLabelPosition=bottom;verticalAlign=top;align=center;outlineConnect=0;shape=mxgraph.veeam.portal_admin;" parent="1" vertex="1">
          <mxGeometry x="650" y="390" width="44.4" height="48.8" as="geometry" />
        </mxCell>
        <mxCell id="MV-CaAHBzK1avhQ4tYMH-8" style="edgeStyle=orthogonalEdgeStyle;rounded=0;orthogonalLoop=1;jettySize=auto;html=1;" edge="1" parent="1" source="Rhveo0W2Fqeqg5HtCw4J-12" target="Rhveo0W2Fqeqg5HtCw4J-3">
          <mxGeometry relative="1" as="geometry" />
        </mxCell>
        <mxCell id="Rhveo0W2Fqeqg5HtCw4J-12" value="Diagnostic Settings" style="aspect=fixed;html=1;points=[];align=center;image;fontSize=12;image=img/lib/azure2/management_governance/Diagnostics_Settings.svg;" parent="1" vertex="1">
          <mxGeometry x="230" y="303.46000000000004" width="36" height="43.07" as="geometry" />
        </mxCell>
        <mxCell id="MV-CaAHBzK1avhQ4tYMH-7" style="edgeStyle=orthogonalEdgeStyle;rounded=0;orthogonalLoop=1;jettySize=auto;html=1;" edge="1" parent="1" source="Rhveo0W2Fqeqg5HtCw4J-14" target="Rhveo0W2Fqeqg5HtCw4J-3">
          <mxGeometry relative="1" as="geometry" />
        </mxCell>
        <mxCell id="Rhveo0W2Fqeqg5HtCw4J-14" value="Diagnostic Settings" style="aspect=fixed;html=1;points=[];align=center;image;fontSize=12;image=img/lib/azure2/management_governance/Diagnostics_Settings.svg;" parent="1" vertex="1">
          <mxGeometry x="210" y="200" width="36" height="43.07" as="geometry" />
        </mxCell>
        <mxCell id="Rhveo0W2Fqeqg5HtCw4J-19" value="Metrics" style="shape=image;verticalLabelPosition=bottom;labelBackgroundColor=#ffffff;verticalAlign=top;aspect=fixed;imageAspect=0;image=data:image/svg+xml,PHN2ZyB4bWxuczpjYz0iaHR0cDovL2NyZWF0aXZlY29tbW9ucy5vcmcvbnMjIiB4bWxuczpkYz0iaHR0cDovL3B1cmwub3JnL2RjL2VsZW1lbnRzLzEuMS8iIHhtbG5zOmlua3NjYXBlPSJodHRwOi8vd3d3Lmlua3NjYXBlLm9yZy9uYW1lc3BhY2VzL2lua3NjYXBlIiB4bWxuczpyZGY9Imh0dHA6Ly93d3cudzMub3JnLzE5OTkvMDIvMjItcmRmLXN5bnRheC1ucyMiIHhtbG5zOnNvZGlwb2RpPSJodHRwOi8vc29kaXBvZGkuc291cmNlZm9yZ2UubmV0L0RURC9zb2RpcG9kaS0wLmR0ZCIgeG1sbnM6c3ZnPSJodHRwOi8vd3d3LnczLm9yZy8yMDAwL3N2ZyIgeG1sbnM9Imh0dHA6Ly93d3cudzMub3JnLzIwMDAvc3ZnIiB4bWxuczp4bGluaz0iaHR0cDovL3d3dy53My5vcmcvMTk5OS94bGluayIgdmVyc2lvbj0iMS4xIiBpZD0ic3ZnMTAzNjgwIiBpbmtzY2FwZTp2ZXJzaW9uPSIwLjkyLjMgKDI0MDU1NDYsIDIwMTgtMDMtMTEpIiBzb2RpcG9kaTpkb2NuYW1lPSJ2c19vbmxpbmVfdmlzdWFsaXplX3Byb2dyZXNzLnN2ZyIgeD0iMHB4IiB5PSIwcHgiIHZpZXdCb3g9IjAgMCA0NS43NSAzMC4zNyIgc3R5bGU9ImVuYWJsZS1iYWNrZ3JvdW5kOm5ldyAwIDAgNDUuNzUgMzAuMzc7IiB4bWw6c3BhY2U9InByZXNlcnZlIj4mI3hhOzxzb2RpcG9kaTpuYW1lZHZpZXcgYm9yZGVyY29sb3I9IiM2NjY2NjYiIGJvcmRlcm9wYWNpdHk9IjEiIGZpdC1tYXJnaW4tYm90dG9tPSIwIiBmaXQtbWFyZ2luLWxlZnQ9IjAiIGZpdC1tYXJnaW4tcmlnaHQ9IjAiIGZpdC1tYXJnaW4tdG9wPSIwIiBncmlkdG9sZXJhbmNlPSIxMCIgZ3VpZGV0b2xlcmFuY2U9IjEwIiBpZD0ibmFtZWR2aWV3MTAzNjgyIiBpbmtzY2FwZTpjdXJyZW50LWxheWVyPSJzdmcxMDM2ODAiIGlua3NjYXBlOmN4PSIzNy4zOTEyNDYiIGlua3NjYXBlOmN5PSIxMy40NzQxNDQiIGlua3NjYXBlOnBhZ2VvcGFjaXR5PSIwIiBpbmtzY2FwZTpwYWdlc2hhZG93PSIyIiBpbmtzY2FwZTp3aW5kb3ctaGVpZ2h0PSIxMDE3IiBpbmtzY2FwZTp3aW5kb3ctbWF4aW1pemVkPSIxIiBpbmtzY2FwZTp3aW5kb3ctd2lkdGg9IjE5MjAiIGlua3NjYXBlOndpbmRvdy14PSItOCIgaW5rc2NhcGU6d2luZG93LXk9Ii04IiBpbmtzY2FwZTp6b29tPSIxMC4yMDAwMDgiIG9iamVjdHRvbGVyYW5jZT0iMTAiIHBhZ2Vjb2xvcj0iI2ZmZmZmZiIgc2hvd2dyaWQ9ImZhbHNlIj4mI3hhOwk8L3NvZGlwb2RpOm5hbWVkdmlldz4mI3hhOzxnIGlkPSJnMTAzNjc4IiB0cmFuc2Zvcm09InRyYW5zbGF0ZSgtMC43NSwtMC43NSkiPiYjeGE7CTx0aXRsZSBpZD0idGl0bGUxMDM2MzgiPlBhZ2UtMTwvdGl0bGU+JiN4YTsJPGcgaWQ9Imdyb3VwNDI2Mi0xIiB0cmFuc2Zvcm09InRyYW5zbGF0ZSgwLjc1LC0wLjc1KSI+JiN4YTsJCTx0aXRsZSBpZD0idGl0bGUxMDM2NDAiPlZTIE9ubGluZSAtIFZpc3VhbGl6ZSBQcm9ncmVzczwvdGl0bGU+JiN4YTsJCTxnIGlkPSJzaGFwZTQyNjMtMiI+JiN4YTsJCQk8dGl0bGUgaWQ9InRpdGxlMTAzNjQyIj5TaGVldC40MjYzPC90aXRsZT4mI3hhOwkJCTxyZWN0IGlkPSJyZWN0MTAzNjQ0IiB4PSIwIiB5PSIyMi40NSIgc3R5bGU9ImZpbGw6IzE2NzNCQTsiIHdpZHRoPSI1LjI1IiBoZWlnaHQ9IjkuNDIiLz4mI3hhOwkJPC9nPiYjeGE7CQk8ZyBpZD0ic2hhcGU0MjY0LTQiIHRyYW5zZm9ybT0idHJhbnNsYXRlKDYuNzUpIj4mI3hhOwkJCTx0aXRsZSBpZD0idGl0bGUxMDM2NDciPlNoZWV0LjQyNjQ8L3RpdGxlPiYjeGE7CQkJPHJlY3QgaWQ9InJlY3QxMDM2NDkiIHg9IjAiIHk9IjQuODgiIHN0eWxlPSJmaWxsOiM2OTJBN0I7IiB3aWR0aD0iNS4yNSIgaGVpZ2h0PSIyNyIvPiYjeGE7CQk8L2c+JiN4YTsJCTxnIGlkPSJzaGFwZTQyNjUtNiIgdHJhbnNmb3JtPSJ0cmFuc2xhdGUoMjAuMjUpIj4mI3hhOwkJCTx0aXRsZSBpZD0idGl0bGUxMDM2NTIiPlNoZWV0LjQyNjU8L3RpdGxlPiYjeGE7CQkJPHJlY3QgaWQ9InJlY3QxMDM2NTQiIHg9IjAiIHk9IjExLjYzIiBzdHlsZT0iZmlsbDojMUE1MDlCOyIgd2lkdGg9IjUuMjUiIGhlaWdodD0iMjAuMjUiLz4mI3hhOwkJPC9nPiYjeGE7CQk8ZyBpZD0ic2hhcGU0MjY2LTgiIHRyYW5zZm9ybT0idHJhbnNsYXRlKDI3KSI+JiN4YTsJCQk8dGl0bGUgaWQ9InRpdGxlMTAzNjU3Ij5TaGVldC40MjY2PC90aXRsZT4mI3hhOwkJCTxyZWN0IGlkPSJyZWN0MTAzNjU5IiB4PSIwIiB5PSIxLjUiIHN0eWxlPSJmaWxsOiM5QzUwOTg7IiB3aWR0aD0iNS4yNSIgaGVpZ2h0PSIzMC4zOCIvPiYjeGE7CQk8L2c+JiN4YTsJCTxnIGlkPSJzaGFwZTQyNjctMTAiIHRyYW5zZm9ybT0idHJhbnNsYXRlKDEzLjUpIj4mI3hhOwkJCTx0aXRsZSBpZD0idGl0bGUxMDM2NjIiPlNoZWV0LjQyNjc8L3RpdGxlPiYjeGE7CQkJPHJlY3QgaWQ9InJlY3QxMDM2NjQiIHg9IjAiIHk9IjIxLjM4IiBzdHlsZT0iZmlsbDojMzZDNkYzOyIgd2lkdGg9IjUuMjUiIGhlaWdodD0iMTAuNSIvPiYjeGE7CQk8L2c+JiN4YTsJCTxnIGlkPSJzaGFwZTQyNjgtMTIiIHRyYW5zZm9ybT0idHJhbnNsYXRlKDMzLjc1KSI+JiN4YTsJCQk8dGl0bGUgaWQ9InRpdGxlMTAzNjY3Ij5TaGVldC40MjY4PC90aXRsZT4mI3hhOwkJCTxyZWN0IGlkPSJyZWN0MTAzNjY5IiB4PSIwIiB5PSIxOS44OCIgc3R5bGU9ImZpbGw6IzE2MjQ0RTsiIHdpZHRoPSI1LjI1IiBoZWlnaHQ9IjEyIi8+JiN4YTsJCTwvZz4mI3hhOwkJPGcgaWQ9InNoYXBlNDI2OS0xNCIgdHJhbnNmb3JtPSJ0cmFuc2xhdGUoNDAuNSkiPiYjeGE7CQkJPHRpdGxlIGlkPSJ0aXRsZTEwMzY3MiI+U2hlZXQuNDI2OTwvdGl0bGU+JiN4YTsJCQk8cmVjdCBpZD0icmVjdDEwMzY3NCIgeD0iMCIgeT0iMTEuNjMiIHN0eWxlPSJmaWxsOiM5QzUwOTg7IiB3aWR0aD0iNS4yNSIgaGVpZ2h0PSIyMC4yNSIvPiYjeGE7CQk8L2c+JiN4YTsJPC9nPiYjeGE7PC9nPiYjeGE7PC9zdmc+;" parent="1" vertex="1">
          <mxGeometry x="314" y="583.48" width="66" height="43.04" as="geometry" />
        </mxCell>
        <mxCell id="MV-CaAHBzK1avhQ4tYMH-19" value="Automated Deployments" style="edgeStyle=orthogonalEdgeStyle;rounded=0;orthogonalLoop=1;jettySize=auto;html=1;exitX=0.5;exitY=1;exitDx=0;exitDy=0;entryX=0;entryY=0.25;entryDx=0;entryDy=0;" edge="1" parent="1" source="MV-CaAHBzK1avhQ4tYMH-1" target="Rhveo0W2Fqeqg5HtCw4J-1">
          <mxGeometry relative="1" as="geometry" />
        </mxCell>
        <mxCell id="MV-CaAHBzK1avhQ4tYMH-1" value="GitHub Repo" style="shape=image;verticalLabelPosition=bottom;labelBackgroundColor=#ffffff;verticalAlign=top;aspect=fixed;imageAspect=0;image=data:image/svg+xml,PHN2ZyB4bWxuczpjYz0iaHR0cDovL2NyZWF0aXZlY29tbW9ucy5vcmcvbnMjIiB4bWxuczpkYz0iaHR0cDovL3B1cmwub3JnL2RjL2VsZW1lbnRzLzEuMS8iIHhtbG5zOmlua3NjYXBlPSJodHRwOi8vd3d3Lmlua3NjYXBlLm9yZy9uYW1lc3BhY2VzL2lua3NjYXBlIiB4bWxuczpyZGY9Imh0dHA6Ly93d3cudzMub3JnLzE5OTkvMDIvMjItcmRmLXN5bnRheC1ucyMiIHhtbG5zOnNvZGlwb2RpPSJodHRwOi8vc29kaXBvZGkuc291cmNlZm9yZ2UubmV0L0RURC9zb2RpcG9kaS0wLmR0ZCIgeG1sbnM6c3ZnPSJodHRwOi8vd3d3LnczLm9yZy8yMDAwL3N2ZyIgeG1sbnM9Imh0dHA6Ly93d3cudzMub3JnLzIwMDAvc3ZnIiB4bWxuczp4bGluaz0iaHR0cDovL3d3dy53My5vcmcvMTk5OS94bGluayIgdmVyc2lvbj0iMS4xIiBpZD0ic3ZnMTc1NjcxIiBpbmtzY2FwZTp2ZXJzaW9uPSIwLjkyLjMgKDI0MDU1NDYsIDIwMTgtMDMtMTEpIiBzb2RpcG9kaTpkb2NuYW1lPSJnaXRodWIuc3ZnIiB4PSIwcHgiIHk9IjBweCIgdmlld0JveD0iMCAwIDQ1LjI3IDQ1LjI5IiBzdHlsZT0iZW5hYmxlLWJhY2tncm91bmQ6bmV3IDAgMCA0NS4yNyA0NS4yOTsiIHhtbDpzcGFjZT0icHJlc2VydmUiPiYjeGE7PHNvZGlwb2RpOm5hbWVkdmlldyBib3JkZXJjb2xvcj0iIzY2NjY2NiIgYm9yZGVyb3BhY2l0eT0iMSIgZml0LW1hcmdpbi1ib3R0b209IjAiIGZpdC1tYXJnaW4tbGVmdD0iMCIgZml0LW1hcmdpbi1yaWdodD0iMCIgZml0LW1hcmdpbi10b3A9IjAiIGdyaWR0b2xlcmFuY2U9IjEwIiBndWlkZXRvbGVyYW5jZT0iMTAiIGlkPSJuYW1lZHZpZXcxNzU2NzMiIGlua3NjYXBlOmN1cnJlbnQtbGF5ZXI9InN2ZzE3NTY3MSIgaW5rc2NhcGU6Y3g9IjMwLjE3ODAyNSIgaW5rc2NhcGU6Y3k9IjMwLjE5NDMxOSIgaW5rc2NhcGU6cGFnZW9wYWNpdHk9IjAiIGlua3NjYXBlOnBhZ2VzaGFkb3c9IjIiIGlua3NjYXBlOndpbmRvdy1oZWlnaHQ9IjEwMTciIGlua3NjYXBlOndpbmRvdy1tYXhpbWl6ZWQ9IjEiIGlua3NjYXBlOndpbmRvdy13aWR0aD0iMTkyMCIgaW5rc2NhcGU6d2luZG93LXg9Ii04IiBpbmtzY2FwZTp3aW5kb3cteT0iLTgiIGlua3NjYXBlOnpvb209IjEwLjA5NTE1OCIgb2JqZWN0dG9sZXJhbmNlPSIxMCIgcGFnZWNvbG9yPSIjZmZmZmZmIiBzaG93Z3JpZD0iZmFsc2UiPiYjeGE7CTwvc29kaXBvZGk6bmFtZWR2aWV3PiYjeGE7PGcgaWQ9ImcxNzU2NjkiIHRyYW5zZm9ybT0idHJhbnNsYXRlKC05LjU2MjU0MTcsLTkuNTYxMzEpIj4mI3hhOwk8dGl0bGUgaWQ9InRpdGxlMTc1NjU5Ij5QYWdlLTE8L3RpdGxlPiYjeGE7CTxnIGlkPSJncm91cDIyNTAtMSIgdHJhbnNmb3JtPSJ0cmFuc2xhdGUoOS41NjMwOCwtOS4zNzg2OSkiPiYjeGE7CQk8dGl0bGUgaWQ9InRpdGxlMTc1NjYxIj5HaXRIdWI8L3RpdGxlPiYjeGE7CQk8ZyBpZD0ic2hhcGUyMjUxLTIiPiYjeGE7CQkJPHRpdGxlIGlkPSJ0aXRsZTE3NTY2MyI+U2hlZXQuMjI1MTwvdGl0bGU+JiN4YTsJCQk8cGF0aCBpZD0icGF0aDE3NTY2NSIgaW5rc2NhcGU6Y29ubmVjdG9yLWN1cnZhdHVyZT0iMCIgZD0iTTIyLjYzLDE4Ljk0QzEwLjE0LDE4Ljk0LDAsMjkuMzMsMCw0Mi4xNSAgICAgYy0wLjA3LDkuODksNi4xNSwxOC43MywxNS40OCwyMi4wMWMxLjEzLDAuMjIsMS41NC0wLjUsMS41NC0xLjExYzAtMC42MiwwLTIuMDEsMC0zLjk1Yy02LjI5LDEuNDEtNy42Mi0zLjExLTcuNjItMy4xMSAgICAgYy0xLjAzLTIuNjgtMi41MS0zLjQtMi41MS0zLjRjLTIuMDYtMS40MSwwLjE1LTEuNDEsMC4xNS0xLjQxYzIuMjcsMC4xNiwzLjQ3LDIuMzksMy40NywyLjM5YzIuMDIsMy41NCw1LjMsMi41Miw2LjU4LDEuOTMgICAgIGMwLjEtMS4xNywwLjYtMi4yNiwxLjQyLTMuMUMxMy40OCw1MS44MSw4LjIsNDkuODIsOC4yLDQwLjkyYy0wLjA0LTIuMjksMC43OS00LjUxLDIuMzItNi4yMmMtMC42OS0yLTAuNjEtNC4xOSwwLjIyLTYuMTQgICAgIGMwLDAsMS45MS0wLjYyLDYuMjMsMi40YzMuNy0xLjA0LDcuNjItMS4wNCwxMS4zMiwwYzQuMzItMyw2LjIyLTIuMzcsNi4yMi0yLjM3YzAuODMsMS45NSwwLjkxLDQuMTQsMC4yMiw2LjE0ICAgICBjMS41MywxLjcsMi4zNywzLjkzLDIuMzMsNi4yMmMwLDguOTEtNS4yOSwxMC44OC0xMC4zMywxMS40NWMwLjgxLDAuNzEsMS41MywyLjEyLDEuNTMsNC4zYzAsMy4xMSwwLDUuNjEsMCw2LjM3ICAgICBjMCwwLjYyLDAuNDEsMS4zNCwxLjU2LDEuMTJjOS4zMy0zLjMsMTUuNTMtMTIuMTUsMTUuNDUtMjIuMDRDNDUuMjcsMjkuMzMsMzUuMTMsMTguOTQsMjIuNjMsMTguOTR6Ii8+JiN4YTsJCTwvZz4mI3hhOwk8L2c+JiN4YTs8L2c+JiN4YTs8L3N2Zz4=;" vertex="1" parent="1">
          <mxGeometry x="-120" y="140" width="45" height="45" as="geometry" />
        </mxCell>
        <mxCell id="MV-CaAHBzK1avhQ4tYMH-25" style="edgeStyle=orthogonalEdgeStyle;rounded=0;orthogonalLoop=1;jettySize=auto;html=1;entryX=0;entryY=0.75;entryDx=0;entryDy=0;" edge="1" parent="1" source="MV-CaAHBzK1avhQ4tYMH-5" target="Rhveo0W2Fqeqg5HtCw4J-1">
          <mxGeometry relative="1" as="geometry">
            <mxPoint x="100" y="330" as="targetPoint" />
          </mxGeometry>
        </mxCell>
        <mxCell id="MV-CaAHBzK1avhQ4tYMH-5" value="Browser" style="shape=image;verticalLabelPosition=bottom;labelBackgroundColor=#ffffff;verticalAlign=top;aspect=fixed;imageAspect=0;image=data:image/svg+xml,PHN2ZyB4bWxuczpjYz0iaHR0cDovL2NyZWF0aXZlY29tbW9ucy5vcmcvbnMjIiB4bWxuczpkYz0iaHR0cDovL3B1cmwub3JnL2RjL2VsZW1lbnRzLzEuMS8iIHhtbG5zOmlua3NjYXBlPSJodHRwOi8vd3d3Lmlua3NjYXBlLm9yZy9uYW1lc3BhY2VzL2lua3NjYXBlIiB4bWxuczpyZGY9Imh0dHA6Ly93d3cudzMub3JnLzE5OTkvMDIvMjItcmRmLXN5bnRheC1ucyMiIHhtbG5zOnNvZGlwb2RpPSJodHRwOi8vc29kaXBvZGkuc291cmNlZm9yZ2UubmV0L0RURC9zb2RpcG9kaS0wLmR0ZCIgeG1sbnM6c3ZnPSJodHRwOi8vd3d3LnczLm9yZy8yMDAwL3N2ZyIgeG1sbnM9Imh0dHA6Ly93d3cudzMub3JnLzIwMDAvc3ZnIiB4bWxuczp4bGluaz0iaHR0cDovL3d3dy53My5vcmcvMTk5OS94bGluayIgdmVyc2lvbj0iMS4xIiBpZD0ic3ZnNTk4MDUiIGlua3NjYXBlOnZlcnNpb249IjAuOTIuMyAoMjQwNTU0NiwgMjAxOC0wMy0xMSkiIHNvZGlwb2RpOmRvY25hbWU9ImJyb3dzZXIuc3ZnIiB4PSIwcHgiIHk9IjBweCIgdmlld0JveD0iMCAwIDg4LjE3IDc3LjA1IiBzdHlsZT0iZW5hYmxlLWJhY2tncm91bmQ6bmV3IDAgMCA4OC4xNyA3Ny4wNTsiIHhtbDpzcGFjZT0icHJlc2VydmUiPiYjeGE7PHNvZGlwb2RpOm5hbWVkdmlldyBib3JkZXJjb2xvcj0iIzY2NjY2NiIgYm9yZGVyb3BhY2l0eT0iMSIgZml0LW1hcmdpbi1ib3R0b209IjAiIGZpdC1tYXJnaW4tbGVmdD0iMCIgZml0LW1hcmdpbi1yaWdodD0iMCIgZml0LW1hcmdpbi10b3A9IjAiIGdyaWR0b2xlcmFuY2U9IjEwIiBndWlkZXRvbGVyYW5jZT0iMTAiIGlkPSJuYW1lZHZpZXc1OTgwNyIgaW5rc2NhcGU6Y3VycmVudC1sYXllcj0ic3ZnNTk4MDUiIGlua3NjYXBlOmN4PSI1OC43NzgxMjUiIGlua3NjYXBlOmN5PSI1MS4zNjIyMTUiIGlua3NjYXBlOnBhZ2VvcGFjaXR5PSIwIiBpbmtzY2FwZTpwYWdlc2hhZG93PSIyIiBpbmtzY2FwZTp3aW5kb3ctaGVpZ2h0PSIxMDE3IiBpbmtzY2FwZTp3aW5kb3ctbWF4aW1pemVkPSIxIiBpbmtzY2FwZTp3aW5kb3ctd2lkdGg9IjE5MjAiIGlua3NjYXBlOndpbmRvdy14PSItOCIgaW5rc2NhcGU6d2luZG93LXk9Ii04IiBpbmtzY2FwZTp6b29tPSI4LjA5ODMyMjkiIG9iamVjdHRvbGVyYW5jZT0iMTAiIHBhZ2Vjb2xvcj0iI2ZmZmZmZiIgc2hvd2dyaWQ9ImZhbHNlIj4mI3hhOwk8L3NvZGlwb2RpOm5hbWVkdmlldz4mI3hhOzxnIGlkPSJnNTk4MDMiIHRyYW5zZm9ybT0idHJhbnNsYXRlKC0xLjYyMDkzLC0xLjYxODgxKSI+JiN4YTsJPHRpdGxlIGlkPSJ0aXRsZTU5NzY4Ij5QYWdlLTE8L3RpdGxlPiYjeGE7CTxnIGlkPSJncm91cDUyMzMtMSIgdHJhbnNmb3JtPSJ0cmFuc2xhdGUoMS42MjA5MywtMS42MjA5MykiPiYjeGE7CQk8dGl0bGUgaWQ9InRpdGxlNTk3NzAiPkJyb3dzZXI8L3RpdGxlPiYjeGE7CQk8ZyBpZD0ic2hhcGU1MjM0LTIiPiYjeGE7CQkJPHRpdGxlIGlkPSJ0aXRsZTU5NzcyIj5wYXRoMzM3PC90aXRsZT4mI3hhOwkJCTxwYXRoIGlkPSJwYXRoNTk3NzQiIGlua3NjYXBlOmNvbm5lY3Rvci1jdXJ2YXR1cmU9IjAiIHN0eWxlPSJmaWxsOiM1OUI0RDk7IiBkPSJNMCw3Ni43N2MwLjAxLDEuOTQsMS41OSwzLjUyLDMuNTMsMy41Mmg4MS4xMSAgICAgYzEuOTQsMCwzLjUyLTEuNTgsMy41My0zLjUydi01NS4ySDBWNzYuNzd6Ii8+JiN4YTsJCTwvZz4mI3hhOwkJPGcgaWQ9InNoYXBlNTIzNS00IiB0cmFuc2Zvcm09InRyYW5zbGF0ZSgwLC01NC44NDU5KSI+JiN4YTsJCQk8dGl0bGUgaWQ9InRpdGxlNTk3NzciPnBhdGgzMzk8L3RpdGxlPiYjeGE7CQkJPHBhdGggaWQ9InBhdGg1OTc3OSIgaW5rc2NhcGU6Y29ubmVjdG9yLWN1cnZhdHVyZT0iMCIgc3R5bGU9ImZpbGw6I0EwQTFBMjsiIGQ9Ik04NC42NCw1OC4wOUgzLjUzYy0xLjk0LDAtMy41MiwxLjU4LTMuNTMsMy41MiAgICAgdjE4LjY4aDg4LjE3VjYxLjYxQzg4LjE2LDU5LjY3LDg2LjU4LDU4LjA5LDg0LjY0LDU4LjA5eiIvPiYjeGE7CQk8L2c+JiN4YTsJCTxnIGlkPSJzaGFwZTUyMzYtNiIgdHJhbnNmb3JtPSJ0cmFuc2xhdGUoMCwtMS45NDAyNikiPiYjeGE7CQkJPHRpdGxlIGlkPSJ0aXRsZTU5NzgyIj5wYXRoMzQxPC90aXRsZT4mI3hhOwkJCTxwYXRoIGlkPSJwYXRoNTk3ODQiIGlua3NjYXBlOmNvbm5lY3Rvci1jdXJ2YXR1cmU9IjAiIHN0eWxlPSJmaWxsOiNGRkZGRkY7ZmlsbC1vcGFjaXR5OjAuMjsiIGQ9Ik0zLjUzLDUuMTggICAgIEMxLjU5LDUuMTgsMC4wMSw2Ljc2LDAsOC43djY4LjA3YzAuMDEsMS45NCwxLjU5LDMuNTIsMy41MywzLjUyaDMuODhMNzYuODgsNS4xOEgzLjUzeiIvPiYjeGE7CQk8L2c+JiN4YTsJCTxnIGlkPSJzaGFwZTUyMzctOCIgdHJhbnNmb3JtPSJ0cmFuc2xhdGUoMjIuNzQ4MiwtNjEuNzE3MSkiPiYjeGE7CQkJPHRpdGxlIGlkPSJ0aXRsZTU5Nzg3Ij5yZWN0MzQzPC90aXRsZT4mI3hhOwkJCTxyZWN0IGlkPSJyZWN0NTk3ODkiIHg9IjAiIHk9IjczLjQyIiBzdHlsZT0iZmlsbDojRkZGRkZGOyIgd2lkdGg9IjU5LjQzIiBoZWlnaHQ9IjYuODgiLz4mI3hhOwkJPC9nPiYjeGE7CQk8ZyBpZD0ic2hhcGU1MjM4LTEwIiB0cmFuc2Zvcm09InRyYW5zbGF0ZSg1LjE3NDY5LC01OS4xMzQpIj4mI3hhOwkJCTx0aXRsZSBpZD0idGl0bGU1OTc5MiI+cGF0aDM0NTwvdGl0bGU+JiN4YTsJCQk8cGF0aCBpZD0icGF0aDU5Nzk0IiBpbmtzY2FwZTpjb25uZWN0b3ItY3VydmF0dXJlPSIwIiBzdHlsZT0iZmlsbDojNTlCNEQ5OyIgZD0iTTE0Ljc1LDc0LjE4YzAsNC43Ny0zLjg3LDguNjQtOC42NCw4LjY0ICAgICBzLTguNjQtMy44Ny04LjY0LTguNjRjMC00Ljc3LDMuODctOC42NCw4LjY0LTguNjRjMCwwLDAsMCwwLDBDMTAuODgsNjUuNTUsMTQuNzQsNjkuNDEsMTQuNzUsNzQuMTh6Ii8+JiN4YTsJCTwvZz4mI3hhOwkJPGcgaWQ9InNoYXBlNTIzOS0xMiIgdHJhbnNmb3JtPSJ0cmFuc2xhdGUoNy4wNTI2OSwtNjAuMTMwMikiPiYjeGE7CQkJPHRpdGxlIGlkPSJ0aXRsZTU5Nzk3Ij5wb2x5Z29uMzQ3PC90aXRsZT4mI3hhOwkJCTxwYXRoIGlkPSJwYXRoNTk3OTkiIGlua3NjYXBlOmNvbm5lY3Rvci1jdXJ2YXR1cmU9IjAiIHN0eWxlPSJmaWxsOiNGRkZGRkY7IiBkPSJNNy4yMyw4MC4yOUg1LjExTDAsNzUuMzZsNS4xMS00Ljk0aDIuMTIgICAgIGwtMy44OCw0LjA2aDkuNTJ2MS43NkgzLjM1TDcuMjMsODAuMjl6Ii8+JiN4YTsJCTwvZz4mI3hhOwk8L2c+JiN4YTs8L2c+JiN4YTs8L3N2Zz4=;" vertex="1" parent="1">
          <mxGeometry x="-89.99999999999994" y="375.06" width="88" height="77" as="geometry" />
        </mxCell>
        <mxCell id="MV-CaAHBzK1avhQ4tYMH-24" style="edgeStyle=orthogonalEdgeStyle;rounded=0;orthogonalLoop=1;jettySize=auto;html=1;" edge="1" parent="1" source="MV-CaAHBzK1avhQ4tYMH-6" target="MV-CaAHBzK1avhQ4tYMH-5">
          <mxGeometry relative="1" as="geometry" />
        </mxCell>
        <mxCell id="MV-CaAHBzK1avhQ4tYMH-6" value="" style="aspect=fixed;html=1;points=[];align=center;image;fontSize=12;image=img/lib/azure2/identity/Users.svg;" vertex="1" parent="1">
          <mxGeometry x="-250" y="378.56" width="64" height="70" as="geometry" />
        </mxCell>
        <mxCell id="MV-CaAHBzK1avhQ4tYMH-18" value="" style="verticalLabelPosition=bottom;html=1;verticalAlign=top;align=center;strokeColor=none;fillColor=#00BEF2;shape=mxgraph.azure.azure_subscription;dashed=1;" vertex="1" parent="1">
          <mxGeometry x="620" y="85" width="87.2" height="65" as="geometry" />
        </mxCell>
        <mxCell id="MV-CaAHBzK1avhQ4tYMH-27" value="Cloud Shell" style="aspect=fixed;html=1;points=[];align=center;image;fontSize=12;image=img/lib/azure2/preview/Azure_Cloud_Shell.svg;dashed=1;strokeColor=#007FFF;strokeWidth=2;fillColor=none;" vertex="1" parent="1">
          <mxGeometry x="500" y="251.5" width="68" height="48" as="geometry" />
        </mxCell>
      </root>
    </mxGraphModel>
  </diagram>
</mxfile>
